<svg xmlns="http://www.w3.org/2000/svg" style="display:none;">


    <symbol id="call" viewBox="0 0 24 24">
        <svg xmlns="http://www.w3.org/2000/svg" height="24px" viewBox="0 -960 960 960" width="24px" fill="currentColor">
            <path d="M798-120q-125 0-247-54.5T329-329Q229-429 174.5-551T120-798q0-18 12-30t30-12h162q14 0 25 9.5t13 22.5l26 140q2 16-1 27t-11 19l-97 98q20 37 47.5 71.5T387-386q31 31 65 57.5t72 48.5l94-94q9-9 23.5-13.5T670-390l138 28q14 4 23 14.5t9 23.5v162q0 18-12 30t-30 12ZM241-600l66-66-17-94h-89q5 41 14 81t26 79Zm358 358q39 17 79.5 27t81.5 13v-88l-94-19-67 67ZM241-600Zm358 358Z"/>
        </svg>
    </symbol>

    <symbol id="mail" viewBox="0 0 24 24">
        <svg xmlns="http://www.w3.org/2000/svg" height="24px" viewBox="0 -960 960 960" width="24px" fill="currentColor">
            <path d="M160-160q-33 0-56.5-23.5T80-240v-480q0-33 23.5-56.5T160-800h640q33 0 56.5 23.5T880-720v480q0 33-23.5 56.5T800-160H160Zm640-480L501-453q-5 3-10.5 4.5T480-447q-5 0-10.5-1.5T459-453L160-640v400h640v-400ZM480-520l320-200H160l320 200ZM160-640v10-59 1-32 32-.5 58.5-10 400-400Z"/>
        </svg>
    </symbol>

    <symbol id="whatsapp" viewBox="0 0 32 32">
        <svg xmlns="http://www.w3.org/2000/svg" width="32" height="32" viewBox="0 0 32 32">
            <path d="M25.873,6.069c-2.619-2.623-6.103-4.067-9.814-4.069C8.411,2,2.186,8.224,2.184,15.874c-.001,2.446,.638,4.833,1.852,6.936l-1.969,7.19,7.355-1.929c2.026,1.106,4.308,1.688,6.63,1.689h.006c7.647,0,13.872-6.224,13.874-13.874,.001-3.708-1.44-7.193-4.06-9.815h0Zm-9.814,21.347h-.005c-2.069,0-4.099-.557-5.87-1.607l-.421-.25-4.365,1.145,1.165-4.256-.274-.436c-1.154-1.836-1.764-3.958-1.763-6.137,.003-6.358,5.176-11.531,11.537-11.531,3.08,.001,5.975,1.202,8.153,3.382,2.177,2.179,3.376,5.077,3.374,8.158-.003,6.359-5.176,11.532-11.532,11.532h0Zm6.325-8.636c-.347-.174-2.051-1.012-2.369-1.128-.318-.116-.549-.174-.78,.174-.231,.347-.895,1.128-1.098,1.359-.202,.232-.405,.26-.751,.086-.347-.174-1.464-.54-2.788-1.72-1.03-.919-1.726-2.054-1.929-2.402-.202-.347-.021-.535,.152-.707,.156-.156,.347-.405,.52-.607,.174-.202,.231-.347,.347-.578,.116-.232,.058-.434-.029-.607-.087-.174-.78-1.88-1.069-2.574-.281-.676-.567-.584-.78-.595-.202-.01-.433-.012-.665-.012s-.607,.086-.925,.434c-.318,.347-1.213,1.186-1.213,2.892s1.242,3.355,1.416,3.587c.174,.232,2.445,3.733,5.922,5.235,.827,.357,1.473,.571,1.977,.73,.83,.264,1.586,.227,2.183,.138,.666-.1,2.051-.839,2.34-1.649,.289-.81,.289-1.504,.202-1.649s-.318-.232-.665-.405h0Z" fill-rule="evenodd" fill="currentColor"></path>
        </svg>
    </symbol>

    <symbol id="github" viewBox="0 0 32 32">
        <svg xmlns="http://www.w3.org/2000/svg" width="32" height="32" viewBox="0 0 32 32">
            <path fill="currentColor" d="M16,2.345c7.735,0,14,6.265,14,14-.002,6.015-3.839,11.359-9.537,13.282-.7,.14-.963-.298-.963-.665,0-.473,.018-1.978,.018-3.85,0-1.312-.437-2.152-.945-2.59,3.115-.35,6.388-1.54,6.388-6.912,0-1.54-.543-2.783-1.435-3.762,.14-.35,.63-1.785-.14-3.71,0,0-1.173-.385-3.85,1.435-1.12-.315-2.31-.472-3.5-.472s-2.38,.157-3.5,.472c-2.677-1.802-3.85-1.435-3.85-1.435-.77,1.925-.28,3.36-.14,3.71-.892,.98-1.435,2.24-1.435,3.762,0,5.355,3.255,6.563,6.37,6.913-.403,.35-.77,.963-.893,1.872-.805,.368-2.818,.963-4.077-1.155-.263-.42-1.05-1.452-2.152-1.435-1.173,.018-.472,.665,.017,.927,.595,.332,1.277,1.575,1.435,1.978,.28,.787,1.19,2.293,4.707,1.645,0,1.173,.018,2.275,.018,2.607,0,.368-.263,.787-.963,.665-5.719-1.904-9.576-7.255-9.573-13.283,0-7.735,6.265-14,14-14Z"></path>
        </svg>
    </symbol>

    <symbol id="instagram" viewBox="0 0 32 32">
        <svg xmlns="http://www.w3.org/2000/svg" width="32" height="32" viewBox="0 0 32 32">
            <path fill="currentColor" d="M10.202,2.098c-1.49,.07-2.507,.308-3.396,.657-.92,.359-1.7,.84-2.477,1.619-.776,.779-1.254,1.56-1.61,2.481-.345,.891-.578,1.909-.644,3.4-.066,1.49-.08,1.97-.073,5.771s.024,4.278,.096,5.772c.071,1.489,.308,2.506,.657,3.396,.359,.92,.84,1.7,1.619,2.477,.779,.776,1.559,1.253,2.483,1.61,.89,.344,1.909,.579,3.399,.644,1.49,.065,1.97,.08,5.771,.073,3.801-.007,4.279-.024,5.773-.095s2.505-.309,3.395-.657c.92-.36,1.701-.84,2.477-1.62s1.254-1.561,1.609-2.483c.345-.89,.579-1.909,.644-3.398,.065-1.494,.081-1.971,.073-5.773s-.024-4.278-.095-5.771-.308-2.507-.657-3.397c-.36-.92-.84-1.7-1.619-2.477s-1.561-1.254-2.483-1.609c-.891-.345-1.909-.58-3.399-.644s-1.97-.081-5.772-.074-4.278,.024-5.771,.096m.164,25.309c-1.365-.059-2.106-.286-2.6-.476-.654-.252-1.12-.557-1.612-1.044s-.795-.955-1.05-1.608c-.192-.494-.423-1.234-.487-2.599-.069-1.475-.084-1.918-.092-5.656s.006-4.18,.071-5.656c.058-1.364,.286-2.106,.476-2.6,.252-.655,.556-1.12,1.044-1.612s.955-.795,1.608-1.05c.493-.193,1.234-.422,2.598-.487,1.476-.07,1.919-.084,5.656-.092,3.737-.008,4.181,.006,5.658,.071,1.364,.059,2.106,.285,2.599,.476,.654,.252,1.12,.555,1.612,1.044s.795,.954,1.051,1.609c.193,.492,.422,1.232,.486,2.597,.07,1.476,.086,1.919,.093,5.656,.007,3.737-.006,4.181-.071,5.656-.06,1.365-.286,2.106-.476,2.601-.252,.654-.556,1.12-1.045,1.612s-.955,.795-1.608,1.05c-.493,.192-1.234,.422-2.597,.487-1.476,.069-1.919,.084-5.657,.092s-4.18-.007-5.656-.071M21.779,8.517c.002,.928,.755,1.679,1.683,1.677s1.679-.755,1.677-1.683c-.002-.928-.755-1.679-1.683-1.677,0,0,0,0,0,0-.928,.002-1.678,.755-1.677,1.683m-12.967,7.496c.008,3.97,3.232,7.182,7.202,7.174s7.183-3.232,7.176-7.202c-.008-3.97-3.233-7.183-7.203-7.175s-7.182,3.233-7.174,7.203m2.522-.005c-.005-2.577,2.08-4.671,4.658-4.676,2.577-.005,4.671,2.08,4.676,4.658,.005,2.577-2.08,4.671-4.658,4.676-2.577,.005-4.671-2.079-4.676-4.656h0"></path>
        </svg>
    </symbol>

    <symbol id="linkedin" viewBox="0 0 32 32">
        <svg xmlns="http://www.w3.org/2000/svg" width="32" height="32" viewBox="0 0 32 32">
            <path fill="currentColor" d="M26.111,3H5.889c-1.595,0-2.889,1.293-2.889,2.889V26.111c0,1.595,1.293,2.889,2.889,2.889H26.111c1.595,0,2.889-1.293,2.889-2.889V5.889c0-1.595-1.293-2.889-2.889-2.889ZM10.861,25.389h-3.877V12.87h3.877v12.519Zm-1.957-14.158c-1.267,0-2.293-1.034-2.293-2.31s1.026-2.31,2.293-2.31,2.292,1.034,2.292,2.31-1.026,2.31-2.292,2.31Zm16.485,14.158h-3.858v-6.571c0-1.802-.685-2.809-2.111-2.809-1.551,0-2.362,1.048-2.362,2.809v6.571h-3.718V12.87h3.718v1.686s1.118-2.069,3.775-2.069,4.556,1.621,4.556,4.975v7.926Z" fill-rule="evenodd"></path>
        </svg>
    </symbol>

    <symbol id="error" viewBox="0 0 24 24">
        <svg xmlns="http://www.w3.org/2000/svg" height="24px" viewBox="0 -960 960 960" width="24px" fill="currentColor">
            <path d="M480-280q17 0 28.5-11.5T520-320q0-17-11.5-28.5T480-360q-17 0-28.5 11.5T440-320q0 17 11.5 28.5T480-280Zm0-160q17 0 28.5-11.5T520-480v-160q0-17-11.5-28.5T480-680q-17 0-28.5 11.5T440-640v160q0 17 11.5 28.5T480-440Zm0 360q-83 0-156-31.5T197-197q-54-54-85.5-127T80-480q0-83 31.5-156T197-763q54-54 127-85.5T480-880q83 0 156 31.5T763-763q54 54 85.5 127T880-480q0 83-31.5 156T763-197q-54 54-127 85.5T480-80Zm0-80q134 0 227-93t93-227q0-134-93-227t-227-93q-134 0-227 93t-93 227q0 134 93 227t227 93Zm0-320Z"/>
        </svg>
    </symbol>

    <symbol id="not-found" viewBox="0 0 24 24">
        <svg xmlns="http://www.w3.org/2000/svg" height="24px" viewBox="0 -960 960 960" width="24px" fill="currentColor">
            <path d="M240-800v200-200 640-9.5 9.5-640Zm0 720q-33 0-56.5-23.5T160-160v-640q0-33 23.5-56.5T240-880h287q16 0 30.5 6t25.5 17l194 194q11 11 17 25.5t6 30.5v111q0 17-11.5 28.5T760-456q-17 0-28.5-11.5T720-496v-104H600q-33 0-56.5-23.5T520-680v-120H240v640h248q17 0 28.5 11.5T528-120q0 17-11.5 28.5T488-80H240Zm480-103-56 55q-11 11-27.5 11.5T608-128q-11-11-11-28t11-28l56-56-56-56q-11-11-11-28t11-28q11-11 28-11t28 11l56 56 56-56q11-11 27.5-11.5T832-352q11 11 11 28t-11 28l-55 56 55 56q11 11 11.5 27.5T832-128q-11 11-28 11t-28-11l-56-55Z"/>
        </svg>
    </symbol>

    <symbol id="guidelines" viewBox="0 0 24 24">
        <svg xmlns="http://www.w3.org/2000/svg" height="24px" viewBox="0 -960 960 960" width="24px" fill="currentColor">
            <path d="M222-180h515L620-297q-29 23-64.5 35T480-250q-40 0-75.5-12.5T340-298L222-180Zm-42-43 117-117q-23-29-35-64.5T250-480q0-40 12.5-75.5T298-620L180-738v515Zm160-160 98-97-97-97q-14 21-22.5 45.5T310-480q0 27 8 51.5t22 45.5Zm140 73q27 0 51.5-8t45.5-22l-97-98-97 97q21 14 45.5 22.5T480-310Zm0-213 97-96q-21-14-45.5-22.5T480-650q-27 0-52 8t-45 22l97 97Zm140 140q14-20 22-45t8-52q0-27-8.5-51.5T619-577l-97 96 98 98Zm160 160v-515L662-620q23 29 35.5 64.5T710-480q0 40-12 75.5T663-340l117 117ZM620-662l118-118H223l117 117q29-23 64.5-35t75.5-12q40 0 75.5 12.5T620-662ZM180-120q-24 0-42-18t-18-42v-600q0-24 18-42t42-18h600q24 0 42 18t18 42v600q0 24-18 42t-42 18H180Z"/>
        </svg>
    </symbol>

    <symbol id="arrow" viewBox="0 0 24 24">
        <svg xmlns="http://www.w3.org/2000/svg" height="24px" viewBox="0 -960 960 960" width="24px" fill="currentColor">
            <path d="m313-440 196 196q12 12 11.5 28T508-188q-12 11-28 11.5T452-188L188-452q-6-6-8.5-13t-2.5-15q0-8 2.5-15t8.5-13l264-264q11-11 27.5-11t28.5 11q12 12 12 28.5T508-715L313-520h447q17 0 28.5 11.5T800-480q0 17-11.5 28.5T760-440H313Z"/>
        </svg>
    </symbol>
</svg>