<svg xmlns="http://www.w3.org/2000/svg" style="display:none;">

    <!--
    1º Go to the bottom of the file & copy the sample symbol below
    2º Paste the svg inside the sample symbol you've copied
    3º The viewbox of the symbol must be `0 0 svg-width svg-height` 
        *not necessarily the same viewbox as the svg
    4º format document
    5º Set the id of the symbol, this will be the icon name
    6º Add this id to @/types/global.d.ts IconName.
    
    Icon libraries:
    - https://nucleoapp.com/social-media-icons
    - https://fonts.google.com/icons?icon.style=Rounded&icon.size=24&icon.color=%23e3e3e3
    -->

    <symbol id="arrow-back" viewBox="0 0 24 24">
        <svg xmlns="http://www.w3.org/2000/svg" height="24px" viewBox="0 -960 960 960" width="24px" fill="currentColor">
            <path d="m313-440 196 196q12 12 11.5 28T508-188q-12 11-28 11.5T452-188L188-452q-6-6-8.5-13t-2.5-15q0-8 2.5-15t8.5-13l264-264q11-11 27.5-11t28.5 11q12 12 12 28.5T508-715L313-520h447q17 0 28.5 11.5T800-480q0 17-11.5 28.5T760-440H313Z"/>
        </svg>
    </symbol>

    <symbol id="refresh" viewBox="0 0 24 24">
        <svg xmlns="http://www.w3.org/2000/svg" height="24px" width="24px" fill="currentColor" viewBox="0 -960 960 960">
            <path d="M481-158q-131 0-225.5-94.5T161-478v-45l-61 61q-8 8-19 8t-19-8q-8-8-8-19.5t8-19.5l108-109q9-9 21-9t21 9l109 109q8 8 8 19t-8 19q-8 8-19.5 8t-19.5-8l-61-60v45q0 107 76.5 183.5T481-218q20 0 39-2.5t36-7.5q12-3 23.5 1.5T596-211q5 11 0 22t-17 15q-24 8-48.5 12t-49.5 4Zm-1-580q-20 0-39 2.5t-36 7.5q-12 3-24-1.5T364-745q-5-11 0-22.5t16-15.5q25-8 49.5-11.5T480-798q131 0 225.5 94.5T800-478v43l61-61q8-8 19-8t19 8q8 8 8 19.5t-8 19.5L791-348q-9 9-21 9t-21-9L641-456q-8-8-8-20t8-20q8-8 20-8t20 8l59 59v-41q0-107-76.5-183.5T480-738Z"/>
        </svg>
    </symbol>

    <symbol id="call" viewBox="0 0 24 24">
        <svg xmlns="http://www.w3.org/2000/svg" height="24px" viewBox="0 -960 960 960" width="24px" fill="currentColor">
            <path d="M798-120q-125 0-247-54.5T329-329Q229-429 174.5-551T120-798q0-18 12-30t30-12h162q14 0 25 9.5t13 22.5l26 140q2 16-1 27t-11 19l-97 98q20 37 47.5 71.5T387-386q31 31 65 57.5t72 48.5l94-94q9-9 23.5-13.5T670-390l138 28q14 4 23 14.5t9 23.5v162q0 18-12 30t-30 12ZM241-600l66-66-17-94h-89q5 41 14 81t26 79Zm358 358q39 17 79.5 27t81.5 13v-88l-94-19-67 67ZM241-600Zm358 358Z"/>
        </svg>
    </symbol>

    <symbol id="mail" viewBox="0 0 24 24">
        <svg xmlns="http://www.w3.org/2000/svg" height="24px" viewBox="0 -960 960 960" width="24px" fill="currentColor">
            <path d="M160-160q-33 0-56.5-23.5T80-240v-480q0-33 23.5-56.5T160-800h640q33 0 56.5 23.5T880-720v480q0 33-23.5 56.5T800-160H160Zm640-480L501-453q-5 3-10.5 4.5T480-447q-5 0-10.5-1.5T459-453L160-640v400h640v-400ZM480-520l320-200H160l320 200ZM160-640v10-59 1-32 32-.5 58.5-10 400-400Z"/>
        </svg>
    </symbol>

    <symbol id="motion-arrow" viewBox="0 0 24 24">
        <svg xmlns="http://www.w3.org/2000/svg" height="24px" viewBox="0 -960 960 960" width="24px" fill="currentColor">
            <path d="M480-84q-8 0-15-3t-13-9L228-319q-11-11-11-28t11-29q12-12 28.5-12t28.5 12l155 156v-247q0-17 11.5-28.5T480-507q17 0 28.5 11.5T520-467v247l156-156q11-11 27.5-11t28.5 12q11 11 11 28t-11 28L508-96q-6 6-13 9t-15 3Zm0-503q-17 0-28.5-11.5T440-627v-40q0-17 11.5-28.5T480-707q17 0 28.5 11.5T520-667v40q0 17-11.5 28.5T480-587Zm0-200q-17 0-28.5-11.5T440-827q0-17 11.5-28.5T480-867q17 0 28.5 11.5T520-827q0 17-11.5 28.5T480-787Z"/>
        </svg>
    </symbol>

    <symbol id="menu" viewBox="0 0 24 24">
        <svg xmlns="http://www.w3.org/2000/svg" height="24px" viewBox="0 -960 960 960" width="24px" fill="currentColor">
            <path d="M160-240q-17 0-28.5-11.5T120-280q0-17 11.5-28.5T160-320h640q17 0 28.5 11.5T840-280q0 17-11.5 28.5T800-240H160Zm0-200q-17 0-28.5-11.5T120-480q0-17 11.5-28.5T160-520h640q17 0 28.5 11.5T840-480q0 17-11.5 28.5T800-440H160Zm0-200q-17 0-28.5-11.5T120-680q0-17 11.5-28.5T160-720h640q17 0 28.5 11.5T840-680q0 17-11.5 28.5T800-640H160Z"/>
        </svg>
    </symbol>

    <symbol id="whatsapp" viewBox="0 0 32 32">
        <svg xmlns="http://www.w3.org/2000/svg" width="32" height="32" viewBox="0 0 32 32">
            <path d="M25.873,6.069c-2.619-2.623-6.103-4.067-9.814-4.069C8.411,2,2.186,8.224,2.184,15.874c-.001,2.446,.638,4.833,1.852,6.936l-1.969,7.19,7.355-1.929c2.026,1.106,4.308,1.688,6.63,1.689h.006c7.647,0,13.872-6.224,13.874-13.874,.001-3.708-1.44-7.193-4.06-9.815h0Zm-9.814,21.347h-.005c-2.069,0-4.099-.557-5.87-1.607l-.421-.25-4.365,1.145,1.165-4.256-.274-.436c-1.154-1.836-1.764-3.958-1.763-6.137,.003-6.358,5.176-11.531,11.537-11.531,3.08,.001,5.975,1.202,8.153,3.382,2.177,2.179,3.376,5.077,3.374,8.158-.003,6.359-5.176,11.532-11.532,11.532h0Zm6.325-8.636c-.347-.174-2.051-1.012-2.369-1.128-.318-.116-.549-.174-.78,.174-.231,.347-.895,1.128-1.098,1.359-.202,.232-.405,.26-.751,.086-.347-.174-1.464-.54-2.788-1.72-1.03-.919-1.726-2.054-1.929-2.402-.202-.347-.021-.535,.152-.707,.156-.156,.347-.405,.52-.607,.174-.202,.231-.347,.347-.578,.116-.232,.058-.434-.029-.607-.087-.174-.78-1.88-1.069-2.574-.281-.676-.567-.584-.78-.595-.202-.01-.433-.012-.665-.012s-.607,.086-.925,.434c-.318,.347-1.213,1.186-1.213,2.892s1.242,3.355,1.416,3.587c.174,.232,2.445,3.733,5.922,5.235,.827,.357,1.473,.571,1.977,.73,.83,.264,1.586,.227,2.183,.138,.666-.1,2.051-.839,2.34-1.649,.289-.81,.289-1.504,.202-1.649s-.318-.232-.665-.405h0Z" fill-rule="evenodd" fill="currentColor"></path>
        </svg>
    </symbol>

    <symbol id="summary" viewBox="0 0 24 24">
        <svg xmlns="http://www.w3.org/2000/svg" width="24" height="24" viewBox="0 0 24 24" fill="none">
            <path d="M19.8262 3.31114L7.6153 1.15489C7.37276 1.11198 7.12414 1.11728 6.88365 1.17049C6.64316 1.22369 6.4155 1.32376 6.21369 1.46497C6.01189 1.60619 5.83988 1.78578 5.7075 1.99349C5.57512 2.2012 5.48496 2.43295 5.44217 2.67552L2.65311 18.5193C2.567 19.0088 2.67881 19.5125 2.96395 19.9197C3.2491 20.3268 3.68424 20.6041 4.17374 20.6905L16.3847 22.8468C16.4936 22.8661 16.604 22.8758 16.7147 22.8758C17.156 22.876 17.5833 22.7206 17.9213 22.4368C18.2593 22.1529 18.4864 21.759 18.5625 21.3243L21.3516 5.48052C21.3939 5.23792 21.388 4.98936 21.3342 4.74903C21.2805 4.50871 21.1799 4.28133 21.0383 4.07988C20.8966 3.87843 20.7167 3.70685 20.5087 3.57495C20.3008 3.44305 20.0688 3.3534 19.8262 3.31114ZM16.4062 20.5649L4.93405 18.539L7.59374 3.43489L19.0659 5.46083L16.4062 20.5649ZM8.61561 6.28114C8.66751 5.9874 8.83394 5.7263 9.07831 5.55524C9.32268 5.38418 9.62498 5.31717 9.91874 5.36895L16.2187 6.48176C16.5005 6.52497 16.7553 6.6735 16.9318 6.89736C17.1082 7.12121 17.1931 7.4037 17.1693 7.68774C17.1455 7.97178 17.0148 8.23619 16.8035 8.42755C16.5923 8.61891 16.3162 8.72294 16.0312 8.71864C15.9653 8.71853 15.8994 8.71288 15.8344 8.70176L9.5278 7.58426C9.23406 7.53237 8.97296 7.36594 8.8019 7.12157C8.63084 6.8772 8.56383 6.5749 8.61561 6.28114ZM7.96874 9.97395C7.99443 9.82841 8.04855 9.68936 8.128 9.56474C8.20745 9.44012 8.31067 9.33238 8.43177 9.24767C8.55288 9.16296 8.68948 9.10294 8.83379 9.07104C8.9781 9.03914 9.12728 9.03599 9.2728 9.06176L15.5747 10.1755C15.8513 10.2253 16.0992 10.3769 16.2697 10.6004C16.4402 10.8238 16.5208 11.103 16.4958 11.3829C16.4708 11.6629 16.3418 11.9233 16.1344 12.113C15.927 12.3026 15.6561 12.4078 15.375 12.4077C15.309 12.4076 15.2431 12.402 15.1781 12.3908L8.87718 11.2771C8.58413 11.2243 8.32395 11.0575 8.15366 10.8132C7.98338 10.569 7.91688 10.2672 7.96874 9.97395ZM7.31249 13.6668C7.36439 13.373 7.53082 13.1119 7.77518 12.9409C8.01955 12.7698 8.32185 12.7028 8.61561 12.7546L11.7694 13.3124C12.0466 13.361 12.2956 13.5117 12.4672 13.7349C12.6387 13.9581 12.7204 14.2375 12.696 14.5179C12.6716 14.7984 12.543 15.0595 12.3355 15.2497C12.1281 15.44 11.8568 15.5455 11.5753 15.5455C11.5093 15.5456 11.4434 15.5396 11.3784 15.5277L8.22749 14.9718C8.0816 14.9464 7.94216 14.8925 7.81715 14.8131C7.69215 14.7338 7.58404 14.6305 7.49903 14.5092C7.41403 14.388 7.35379 14.2512 7.32178 14.1066C7.28976 13.962 7.28661 13.8126 7.31249 13.6668Z" fill="white"/>
        </svg>
    </symbol>

    <symbol id="log-out" viewBox="0 0 24 24">
        <svg xmlns="http://www.w3.org/2000/svg" width="24" height="24" viewBox="0 0 24 24" fill="none">
            <path d="M15 3H7C6.46957 3 5.96086 3.21071 5.58579 3.58579C5.21071 3.96086 5 4.46957 5 5V19C5 19.5304 5.21071 20.0391 5.58579 20.4142C5.96086 20.7893 6.46957 21 7 21H15M19 12L15 8M19 12L15 16M19 12H9" stroke="currentColor" stroke-width="2" stroke-linecap="round" stroke-linejoin="round"/>
        </svg>
    </symbol>

    <symbol id="settings" viewBox="0 0 24 24">
        <svg xmlns="http://www.w3.org/2000/svg" width="24" height="24" viewBox="0 0 24 24" fill="none">
            <path d="M12 7.12507C11.0358 7.12507 10.0933 7.41099 9.2916 7.94666C8.48991 8.48233 7.86507 9.2437 7.49609 10.1345C7.12711 11.0253 7.03057 12.0055 7.21867 12.9511C7.40678 13.8968 7.87107 14.7654 8.55286 15.4472C9.23464 16.129 10.1033 16.5933 11.0489 16.7814C11.9946 16.9695 12.9748 16.873 13.8656 16.504C14.7564 16.135 15.5177 15.5102 16.0534 14.7085C16.5891 13.9068 16.875 12.9643 16.875 12.0001C16.8735 10.7076 16.3594 9.46849 15.4455 8.55457C14.5316 7.64065 13.2925 7.12656 12 7.12507ZM12 14.6251C11.4808 14.6251 10.9733 14.4711 10.5416 14.1827C10.11 13.8942 9.7735 13.4843 9.57482 13.0046C9.37614 12.525 9.32415 11.9972 9.42544 11.488C9.52673 10.9788 9.77673 10.511 10.1438 10.1439C10.511 9.77681 10.9787 9.5268 11.4879 9.42551C11.9971 9.32423 12.5249 9.37621 13.0045 9.57489C13.4842 9.77357 13.8942 10.11 14.1826 10.5417C14.471 10.9734 14.625 11.4809 14.625 12.0001C14.625 12.6963 14.3484 13.3639 13.8562 13.8562C13.3639 14.3485 12.6962 14.6251 12 14.6251ZM20.625 12.0741V11.926L21.9375 10.2844C22.0477 10.1469 22.124 9.9854 22.1603 9.81295C22.1966 9.6405 22.1919 9.46193 22.1466 9.29164C21.9097 8.3983 21.5557 7.54022 21.0938 6.73976C21.0048 6.58712 20.8811 6.45758 20.7327 6.36165C20.5843 6.26571 20.4154 6.20608 20.2397 6.18757L18.1509 5.9532L18.0469 5.84914L17.8125 3.75945C17.7939 3.58389 17.7342 3.41519 17.6382 3.26698C17.5423 3.11878 17.4128 2.99523 17.2603 2.90632C16.4598 2.44291 15.6014 2.08763 14.7075 1.84976C14.5371 1.80508 14.3585 1.80106 14.1862 1.83802C14.0139 1.87499 13.8527 1.9519 13.7156 2.06257L12.0741 3.37507H11.9259L10.2844 2.06257C10.1468 1.9524 9.98532 1.87608 9.81288 1.83977C9.64043 1.80345 9.46186 1.80816 9.29156 1.85351C8.39799 2.09183 7.53991 2.44742 6.73969 2.91101C6.58764 2.99955 6.45848 3.12251 6.36257 3.27002C6.26667 3.41754 6.20671 3.58549 6.1875 3.76039L5.95313 5.84914L5.84906 5.9532L3.75938 6.18757C3.58382 6.20622 3.41512 6.26592 3.26691 6.36185C3.1187 6.45778 2.99515 6.58724 2.90625 6.73976C2.44414 7.54048 2.09012 8.39888 1.85344 9.29257C1.80824 9.46273 1.80362 9.64112 1.83993 9.81339C1.87624 9.98566 1.95247 10.147 2.0625 10.2844L3.375 11.926V12.0741L2.0625 13.7157C1.95233 13.8532 1.87601 14.0148 1.83969 14.1872C1.80338 14.3596 1.80809 14.5382 1.85344 14.7085C2.09206 15.6021 2.44796 16.4602 2.91188 17.2604C3.00032 17.4123 3.12314 17.5414 3.27048 17.6373C3.41782 17.7332 3.58558 17.7932 3.76031 17.8126L5.84906 18.0451L5.95313 18.1491L6.1875 20.2407C6.20615 20.4163 6.26585 20.585 6.36178 20.7332C6.4577 20.8814 6.58716 21.0049 6.73969 21.0938C7.54021 21.5572 8.39862 21.9125 9.2925 22.1504C9.46295 22.1951 9.6415 22.1991 9.81379 22.1621C9.98607 22.1252 10.1473 22.0482 10.2844 21.9376L11.9259 20.6251H12.0741L13.7156 21.9376C13.8532 22.0477 14.0147 22.1241 14.1871 22.1604C14.3596 22.1967 14.5381 22.192 14.7084 22.1466C15.6018 21.9098 16.4598 21.5558 17.2603 21.0938C17.4127 21.0055 17.5422 20.8826 17.6385 20.7351C17.7347 20.5876 17.795 20.4195 17.8144 20.2444L18.0469 18.1557L18.1509 18.0516L20.2406 17.8126C20.4157 17.7932 20.5838 17.7329 20.7313 17.6367C20.8788 17.5404 21.0017 17.4109 21.09 17.2585C21.5534 16.458 21.9087 15.5996 22.1466 14.7057C22.1914 14.5358 22.1959 14.3578 22.1596 14.1859C22.1233 14.014 22.0472 13.8529 21.9375 13.7157L20.625 12.0741ZM18.3638 11.6157C18.3788 11.8717 18.3788 12.1284 18.3638 12.3844C18.347 12.6628 18.4342 12.9374 18.6084 13.1551L19.8122 14.6598C19.6986 14.9961 19.563 15.3246 19.4062 15.6432L17.4909 15.856C17.2136 15.8877 16.958 16.0214 16.7738 16.231C16.6034 16.4229 16.4219 16.6045 16.23 16.7748C16.0204 16.959 15.8867 17.2146 15.855 17.4919L15.6431 19.4063C15.3246 19.5637 14.9961 19.6999 14.6597 19.8141L13.155 18.6094C12.9553 18.4501 12.7073 18.3635 12.4519 18.3638C12.4294 18.3638 12.4069 18.3638 12.3844 18.3638C12.1283 18.3788 11.8717 18.3788 11.6156 18.3638C11.3375 18.3473 11.0631 18.4341 10.845 18.6076L9.34031 19.8123C9.00397 19.6986 8.67545 19.563 8.35688 19.4063L8.14406 17.491C8.11236 17.2137 7.9787 16.9581 7.76906 16.7738C7.57719 16.6035 7.39562 16.4219 7.22531 16.2301C7.04105 16.0204 6.78543 15.8868 6.50813 15.8551L4.59375 15.6432C4.43641 15.3247 4.30018 14.9962 4.18594 14.6598L5.38969 13.1551C5.56393 12.9374 5.65113 12.6628 5.63438 12.3844C5.61937 12.1284 5.61937 11.8717 5.63438 11.6157C5.65113 11.3374 5.56393 11.0627 5.38969 10.8451L4.18781 9.34039C4.30145 9.00404 4.43705 8.67552 4.59375 8.35695L6.50906 8.14414C6.78637 8.11243 7.04198 7.97877 7.22625 7.76914C7.39656 7.57726 7.57813 7.39569 7.77 7.22539C7.97964 7.04112 8.1133 6.7855 8.145 6.5082L8.35688 4.59382C8.6754 4.43648 9.00392 4.30025 9.34031 4.18601L10.845 5.3907C11.0631 5.56413 11.3375 5.65093 11.6156 5.63445C11.8717 5.61945 12.1283 5.61945 12.3844 5.63445C12.6626 5.65147 12.9372 5.5646 13.155 5.3907L14.6597 4.18601C14.9961 4.30025 15.3246 4.43648 15.6431 4.59382L15.8559 6.50914C15.8876 6.78644 16.0213 7.04206 16.2309 7.22632C16.4228 7.39663 16.6044 7.5782 16.7747 7.77007C16.959 7.97971 17.2146 8.11337 17.4919 8.14507L19.4062 8.35695C19.5636 8.67547 19.6998 9.00399 19.8141 9.34039L18.6103 10.8451C18.4354 11.0625 18.3475 11.3371 18.3638 11.6157Z" fill="white"/>
        </svg>
    </symbol>

    <symbol id="undo" viewBox="0 0 24 24">
        <svg xmlns="http://www.w3.org/2000/svg" height="24px" viewBox="0 -960 960 960" width="24px" fill="#e3e3e3">
            <path d="M320-200q-17 0-28.5-11.5T280-240q0-17 11.5-28.5T320-280h244q63 0 109.5-40T720-420q0-60-46.5-100T564-560H312l76 76q11 11 11 28t-11 28q-11 11-28 11t-28-11L188-572q-6-6-8.5-13t-2.5-15q0-8 2.5-15t8.5-13l144-144q11-11 28-11t28 11q11 11 11 28t-11 28l-76 76h252q97 0 166.5 63T800-420q0 94-69.5 157T564-200H320Z"/>
        </svg>
    </symbol>

    <symbol id="guideproducts" viewBox="0 0 24 24">
        <svg xmlns="http://www.w3.org/2000/svg" height="24px" viewBox="0 -960 960 960" width="24px" fill="currentColor">
            <path d="M222-180h515L620-297q-29 23-64.5 35T480-250q-40 0-75.5-12.5T340-298L222-180Zm-42-43 117-117q-23-29-35-64.5T250-480q0-40 12.5-75.5T298-620L180-738v515Zm160-160 98-97-97-97q-14 21-22.5 45.5T310-480q0 27 8 51.5t22 45.5Zm140 73q27 0 51.5-8t45.5-22l-97-98-97 97q21 14 45.5 22.5T480-310Zm0-213 97-96q-21-14-45.5-22.5T480-650q-27 0-52 8t-45 22l97 97Zm140 140q14-20 22-45t8-52q0-27-8.5-51.5T619-577l-97 96 98 98Zm160 160v-515L662-620q23 29 35.5 64.5T710-480q0 40-12 75.5T663-340l117 117ZM620-662l118-118H223l117 117q29-23 64.5-35t75.5-12q40 0 75.5 12.5T620-662ZM180-120q-24 0-42-18t-18-42v-600q0-24 18-42t42-18h600q24 0 42 18t18 42v600q0 24-18 42t-42 18H180Z"/>
        </svg>
    </symbol>

    <symbol id="phone" viewBox="0 0 24 24">
        <svg xmlns="http://www.w3.org/2000/svg" height="24px" viewBox="0 -960 960 960" width="24px" fill="currentColor">
            <path d="M798-120q-125 0-247-54.5T329-329Q229-429 174.5-551T120-798q0-18 12-30t30-12h162q14 0 25 9.5t13 22.5l26 140q2 16-1 27t-11 19l-97 98q20 37 47.5 71.5T387-386q31 31 65 57.5t72 48.5l94-94q9-9 23.5-13.5T670-390l138 28q14 4 23 14.5t9 23.5v162q0 18-12 30t-30 12ZM241-600l66-66-17-94h-89q5 41 14 81t26 79Zm358 358q39 17 79.5 27t81.5 13v-88l-94-19-67 67ZM241-600Zm358 358Z"/>
        </svg>
    </symbol>

    <symbol id="apple" viewBox="0 0 24 24">
        <svg xmlns="http://www.w3.org/2000/svg" viewBox="0 0 24 24">
            <path d="M12.152 6.896c-.948 0-2.415-1.078-3.96-1.04-2.04.027-3.91 1.183-4.961 3.014-2.117 3.675-.546 9.103 1.519 12.09 1.013 1.454 2.208 3.09 3.792 3.039 1.52-.065 2.09-.987 3.935-.987 1.831 0 2.35.987 3.96.948 1.637-.026 2.676-1.48 3.676-2.948 1.156-1.688 1.636-3.325 1.662-3.415-.039-.013-3.182-1.221-3.22-4.857-.026-3.04 2.48-4.494 2.597-4.559-1.429-2.09-3.623-2.324-4.39-2.376-2-.156-3.675 1.09-4.61 1.09zM15.53 3.83c.843-1.012 1.4-2.427 1.245-3.83-1.207.052-2.662.805-3.532 1.818-.78.896-1.454 2.338-1.273 3.714 1.338.104 2.715-.688 3.559-1.701" fill="currentColor" />
        </svg>
    </symbol>

    <symbol id="google" viewBox="0 0 24 24">
        <svg xmlns="http://www.w3.org/2000/svg" viewBox="0 0 24 24">
            <path d="M12.48 10.92v3.28h7.84c-.24 1.84-.853 3.187-1.787 4.133-1.147 1.147-2.933 2.4-6.053 2.4-4.827 0-8.6-3.893-8.6-8.72s3.773-8.72 8.6-8.72c2.6 0 4.507 1.027 5.907 2.347l2.307-2.307C18.747 1.44 16.133 0 12.48 0 5.867 0 .307 5.387.307 12s5.56 12 12.173 12c3.573 0 6.267-1.173 8.373-3.36 2.16-2.16 2.84-5.213 2.84-7.667 0-.76-.053-1.467-.173-2.053H12.48z" fill="currentColor" />
        </svg>
    </symbol>

    <symbol id="meta" viewBox="0 0 24 24">
        <svg xmlns="http://www.w3.org/2000/svg" viewBox="0 0 24 24">
            <path d="M6.915 4.03c-1.968 0-3.683 1.28-4.871 3.113C.704 9.208 0 11.883 0 14.449c0 .706.07 1.369.21 1.973a6.624 6.624 0 0 0 .265.86 5.297 5.297 0 0 0 .371.761c.696 1.159 1.818 1.927 3.593 1.927 1.497 0 2.633-.671 3.965-2.444.76-1.012 1.144-1.626 2.663-4.32l.756-1.339.186-.325c.061.1.121.196.183.3l2.152 3.595c.724 1.21 1.665 2.556 2.47 3.314 1.046.987 1.992 1.22 3.06 1.22 1.075 0 1.876-.355 2.455-.843a3.743 3.743 0 0 0 .81-.973c.542-.939.861-2.127.861-3.745 0-2.72-.681-5.357-2.084-7.45-1.282-1.912-2.957-2.93-4.716-2.93-1.047 0-2.088.467-3.053 1.308-.652.57-1.257 1.29-1.82 2.05-.69-.875-1.335-1.547-1.958-2.056-1.182-.966-2.315-1.303-3.454-1.303zm10.16 2.053c1.147 0 2.188.758 2.992 1.999 1.132 1.748 1.647 4.195 1.647 6.4 0 1.548-.368 2.9-1.839 2.9-.58 0-1.027-.23-1.664-1.004-.496-.601-1.343-1.878-2.832-4.358l-.617-1.028a44.908 44.908 0 0 0-1.255-1.98c.07-.109.141-.224.211-.327 1.12-1.667 2.118-2.602 3.358-2.602zm-10.201.553c1.265 0 2.058.791 2.675 1.446.307.327.737.871 1.234 1.579l-1.02 1.566c-.757 1.163-1.882 3.017-2.837 4.338-1.191 1.649-1.81 1.817-2.486 1.817-.524 0-1.038-.237-1.383-.794-.263-.426-.464-1.13-.464-2.046 0-2.221.63-4.535 1.66-6.088.454-.687.964-1.226 1.533-1.533a2.264 2.264 0 0 1 1.088-.285z" fill="currentColor" />
        </svg>
    </symbol>

    <symbol id="github" viewBox="0 0 32 32">
        <svg xmlns="http://www.w3.org/2000/svg" width="32" height="32" viewBox="0 0 32 32">
            <path fill="currentColor" d="M16,2.345c7.735,0,14,6.265,14,14-.002,6.015-3.839,11.359-9.537,13.282-.7,.14-.963-.298-.963-.665,0-.473,.018-1.978,.018-3.85,0-1.312-.437-2.152-.945-2.59,3.115-.35,6.388-1.54,6.388-6.912,0-1.54-.543-2.783-1.435-3.762,.14-.35,.63-1.785-.14-3.71,0,0-1.173-.385-3.85,1.435-1.12-.315-2.31-.472-3.5-.472s-2.38,.157-3.5,.472c-2.677-1.802-3.85-1.435-3.85-1.435-.77,1.925-.28,3.36-.14,3.71-.892,.98-1.435,2.24-1.435,3.762,0,5.355,3.255,6.563,6.37,6.913-.403,.35-.77,.963-.893,1.872-.805,.368-2.818,.963-4.077-1.155-.263-.42-1.05-1.452-2.152-1.435-1.173,.018-.472,.665,.017,.927,.595,.332,1.277,1.575,1.435,1.978,.28,.787,1.19,2.293,4.707,1.645,0,1.173,.018,2.275,.018,2.607,0,.368-.263,.787-.963,.665-5.719-1.904-9.576-7.255-9.573-13.283,0-7.735,6.265-14,14-14Z"></path>
        </svg>
    </symbol>

    <symbol id="instagram" viewBox="0 0 32 32">
        <svg xmlns="http://www.w3.org/2000/svg" width="32" height="32" viewBox="0 0 32 32">
            <path fill="currentColor" d="M10.202,2.098c-1.49,.07-2.507,.308-3.396,.657-.92,.359-1.7,.84-2.477,1.619-.776,.779-1.254,1.56-1.61,2.481-.345,.891-.578,1.909-.644,3.4-.066,1.49-.08,1.97-.073,5.771s.024,4.278,.096,5.772c.071,1.489,.308,2.506,.657,3.396,.359,.92,.84,1.7,1.619,2.477,.779,.776,1.559,1.253,2.483,1.61,.89,.344,1.909,.579,3.399,.644,1.49,.065,1.97,.08,5.771,.073,3.801-.007,4.279-.024,5.773-.095s2.505-.309,3.395-.657c.92-.36,1.701-.84,2.477-1.62s1.254-1.561,1.609-2.483c.345-.89,.579-1.909,.644-3.398,.065-1.494,.081-1.971,.073-5.773s-.024-4.278-.095-5.771-.308-2.507-.657-3.397c-.36-.92-.84-1.7-1.619-2.477s-1.561-1.254-2.483-1.609c-.891-.345-1.909-.58-3.399-.644s-1.97-.081-5.772-.074-4.278,.024-5.771,.096m.164,25.309c-1.365-.059-2.106-.286-2.6-.476-.654-.252-1.12-.557-1.612-1.044s-.795-.955-1.05-1.608c-.192-.494-.423-1.234-.487-2.599-.069-1.475-.084-1.918-.092-5.656s.006-4.18,.071-5.656c.058-1.364,.286-2.106,.476-2.6,.252-.655,.556-1.12,1.044-1.612s.955-.795,1.608-1.05c.493-.193,1.234-.422,2.598-.487,1.476-.07,1.919-.084,5.656-.092,3.737-.008,4.181,.006,5.658,.071,1.364,.059,2.106,.285,2.599,.476,.654,.252,1.12,.555,1.612,1.044s.795,.954,1.051,1.609c.193,.492,.422,1.232,.486,2.597,.07,1.476,.086,1.919,.093,5.656,.007,3.737-.006,4.181-.071,5.656-.06,1.365-.286,2.106-.476,2.601-.252,.654-.556,1.12-1.045,1.612s-.955,.795-1.608,1.05c-.493,.192-1.234,.422-2.597,.487-1.476,.069-1.919,.084-5.657,.092s-4.18-.007-5.656-.071M21.779,8.517c.002,.928,.755,1.679,1.683,1.677s1.679-.755,1.677-1.683c-.002-.928-.755-1.679-1.683-1.677,0,0,0,0,0,0-.928,.002-1.678,.755-1.677,1.683m-12.967,7.496c.008,3.97,3.232,7.182,7.202,7.174s7.183-3.232,7.176-7.202c-.008-3.97-3.233-7.183-7.203-7.175s-7.182,3.233-7.174,7.203m2.522-.005c-.005-2.577,2.08-4.671,4.658-4.676,2.577-.005,4.671,2.08,4.676,4.658,.005,2.577-2.08,4.671-4.658,4.676-2.577,.005-4.671-2.079-4.676-4.656h0"></path>
        </svg>
    </symbol>

    <symbol id="linkedin" viewBox="0 0 32 32">
        <svg xmlns="http://www.w3.org/2000/svg" width="32" height="32" viewBox="0 0 32 32">
            <path fill="currentColor" d="M26.111,3H5.889c-1.595,0-2.889,1.293-2.889,2.889V26.111c0,1.595,1.293,2.889,2.889,2.889H26.111c1.595,0,2.889-1.293,2.889-2.889V5.889c0-1.595-1.293-2.889-2.889-2.889ZM10.861,25.389h-3.877V12.87h3.877v12.519Zm-1.957-14.158c-1.267,0-2.293-1.034-2.293-2.31s1.026-2.31,2.293-2.31,2.292,1.034,2.292,2.31-1.026,2.31-2.292,2.31Zm16.485,14.158h-3.858v-6.571c0-1.802-.685-2.809-2.111-2.809-1.551,0-2.362,1.048-2.362,2.809v6.571h-3.718V12.87h3.718v1.686s1.118-2.069,3.775-2.069,4.556,1.621,4.556,4.975v7.926Z" fill-rule="evenodd"></path>
        </svg>
    </symbol>

    <symbol id="error" viewBox="0 0 24 24">
        <svg xmlns="http://www.w3.org/2000/svg" height="24px" viewBox="0 -960 960 960" width="24px" fill="currentColor">
            <path d="M480-280q17 0 28.5-11.5T520-320q0-17-11.5-28.5T480-360q-17 0-28.5 11.5T440-320q0 17 11.5 28.5T480-280Zm0-160q17 0 28.5-11.5T520-480v-160q0-17-11.5-28.5T480-680q-17 0-28.5 11.5T440-640v160q0 17 11.5 28.5T480-440Zm0 360q-83 0-156-31.5T197-197q-54-54-85.5-127T80-480q0-83 31.5-156T197-763q54-54 127-85.5T480-880q83 0 156 31.5T763-763q54 54 85.5 127T880-480q0 83-31.5 156T763-197q-54 54-127 85.5T480-80Zm0-80q134 0 227-93t93-227q0-134-93-227t-227-93q-134 0-227 93t-93 227q0 134 93 227t227 93Zm0-320Z"/>
        </svg>
    </symbol>

    <symbol id="add-circle" viewBox="0 0 24 24">
        <svg xmlns="http://www.w3.org/2000/svg" height="24px" viewBox="0 -960 960 960" width="24px" fill="currentColor">
            <path d="M440-440v120q0 17 11.5 28.5T480-280q17 0 28.5-11.5T520-320v-120h120q17 0 28.5-11.5T680-480q0-17-11.5-28.5T640-520H520v-120q0-17-11.5-28.5T480-680q-17 0-28.5 11.5T440-640v120H320q-17 0-28.5 11.5T280-480q0 17 11.5 28.5T320-440h120Zm40 360q-83 0-156-31.5T197-197q-54-54-85.5-127T80-480q0-83 31.5-156T197-763q54-54 127-85.5T480-880q83 0 156 31.5T763-763q54 54 85.5 127T880-480q0 83-31.5 156T763-197q-54 54-127 85.5T480-80Zm0-80q134 0 227-93t93-227q0-134-93-227t-227-93q-134 0-227 93t-93 227q0 134 93 227t227 93Zm0-320Z"/>
        </svg>
    </symbol>

    <symbol id="add" viewBox="0 0 24 24">
        <svg xmlns="http://www.w3.org/2000/svg" height="24px" viewBox="0 -960 960 960" width="24px" fill="currentColor">
            <path d="M440-440H240q-17 0-28.5-11.5T200-480q0-17 11.5-28.5T240-520h200v-200q0-17 11.5-28.5T480-760q17 0 28.5 11.5T520-720v200h200q17 0 28.5 11.5T760-480q0 17-11.5 28.5T720-440H520v200q0 17-11.5 28.5T480-200q-17 0-28.5-11.5T440-240v-200Z"/>
        </svg>
    </symbol>

    <symbol id="remove" viewBox="0 0 24 24">
        <svg xmlns="http://www.w3.org/2000/svg" height="24px" viewBox="0 -960 960 960" width="24px" fill="currentColor">
            <path d="M240-440q-17 0-28.5-11.5T200-480q0-17 11.5-28.5T240-520h480q17 0 28.5 11.5T760-480q0 17-11.5 28.5T720-440H240Z"/>
        </svg>
    </symbol>

    <symbol id="ticket" viewBox="0 0 24 24">
        <svg xmlns="http://www.w3.org/2000/svg" height="24px" viewBox="0 -960 960 960" width="24px" fill="currentColor">
            <path d="M160-160q-33 0-56.5-23.5T80-240v-135q0-11 7-19t18-10q24-8 39.5-29t15.5-47q0-26-15.5-47T105-556q-11-2-18-10t-7-19v-135q0-33 23.5-56.5T160-800h640q33 0 56.5 23.5T880-720v135q0 11-7 19t-18 10q-24 8-39.5 29T800-480q0 26 15.5 47t39.5 29q11 2 18 10t7 19v135q0 33-23.5 56.5T800-160H160Zm0-80h640v-102q-37-22-58.5-58.5T720-480q0-43 21.5-79.5T800-618v-102H160v102q37 22 58.5 58.5T240-480q0 43-21.5 79.5T160-342v102Zm320-40q17 0 28.5-11.5T520-320q0-17-11.5-28.5T480-360q-17 0-28.5 11.5T440-320q0 17 11.5 28.5T480-280Zm0-160q17 0 28.5-11.5T520-480q0-17-11.5-28.5T480-520q-17 0-28.5 11.5T440-480q0 17 11.5 28.5T480-440Zm0-160q17 0 28.5-11.5T520-640q0-17-11.5-28.5T480-680q-17 0-28.5 11.5T440-640q0 17 11.5 28.5T480-600Zm0 120Z"/>
        </svg>
    </symbol>

    <symbol id="contact" viewBox="0 0 24 24">
        <svg xmlns="http://www.w3.org/2000/svg" height="24px" viewBox="0 -960 960 960" width="24px" fill="currentColor">
            <path d="M480-400q33 0 56.5-23.5T560-480q0-33-23.5-56.5T480-560q-33 0-56.5 23.5T400-480q0 33 23.5 56.5T480-400ZM320-240h320v-23q0-24-13-44t-36-30q-26-11-53.5-17t-57.5-6q-30 0-57.5 6T369-337q-23 10-36 30t-13 44v23ZM720-80H240q-33 0-56.5-23.5T160-160v-640q0-33 23.5-56.5T240-880h287q16 0 30.5 6t25.5 17l194 194q11 11 17 25.5t6 30.5v447q0 33-23.5 56.5T720-80Zm0-80v-446L526-800H240v640h480Zm-480 0v-640 640Z"/>
        </svg>
    </symbol>

    <symbol id="calendar" viewBox="0 0 24 24">
        <svg xmlns="http://www.w3.org/2000/svg" height="24px" viewBox="0 -960 960 960" width="24px" fill="currentColor">
            <path d="M200-80q-33 0-56.5-23.5T120-160v-560q0-33 23.5-56.5T200-800h40v-40q0-17 11.5-28.5T280-880q17 0 28.5 11.5T320-840v40h320v-40q0-17 11.5-28.5T680-880q17 0 28.5 11.5T720-840v40h40q33 0 56.5 23.5T840-720v560q0 33-23.5 56.5T760-80H200Zm0-80h560v-400H200v400Zm0-480h560v-80H200v80Zm0 0v-80 80Z"/>
        </svg>
    </symbol>

    <symbol id="clock" viewBox="0 0 24 24">
        <svg xmlns="http://www.w3.org/2000/svg" height="24px" viewBox="0 -960 960 960" width="24px" fill="currentColor">
            <path d="M520-496v-144q0-17-11.5-28.5T480-680q-17 0-28.5 11.5T440-640v159q0 8 3 15.5t9 13.5l132 132q11 11 28 11t28-11q11-11 11-28t-11-28L520-496ZM480-80q-83 0-156-31.5T197-197q-54-54-85.5-127T80-480q0-83 31.5-156T197-763q54-54 127-85.5T480-880q83 0 156 31.5T763-763q54 54 85.5 127T880-480q0 83-31.5 156T763-197q-54 54-127 85.5T480-80Zm0-400Zm0 320q133 0 226.5-93.5T800-480q0-133-93.5-226.5T480-800q-133 0-226.5 93.5T160-480q0 133 93.5 226.5T480-160Z"/>
        </svg>
    </symbol>

    <symbol id="card" viewBox="0 0 24 24">
        <svg xmlns="http://www.w3.org/2000/svg" height="24px" viewBox="0 -960 960 960" width="24px" fill="currentColor">
            <path d="M880-720v480q0 33-23.5 56.5T800-160H160q-33 0-56.5-23.5T80-240v-480q0-33 23.5-56.5T160-800h640q33 0 56.5 23.5T880-720Zm-720 80h640v-80H160v80Zm0 160v240h640v-240H160Zm0 240v-480 480Z"/>
        </svg>
    </symbol>

    <symbol id="location" viewBox="0 0 24 24">
        <svg xmlns="http://www.w3.org/2000/svg" height="24px" viewBox="0 -960 960 960" width="24px" fill="currentColor">
            <path d="M480-186q122-112 181-203.5T720-552q0-109-69.5-178.5T480-800q-101 0-170.5 69.5T240-552q0 71 59 162.5T480-186Zm0 79q-14 0-28-5t-25-15q-65-60-115-117t-83.5-110.5q-33.5-53.5-51-103T160-552q0-150 96.5-239T480-880q127 0 223.5 89T800-552q0 45-17.5 94.5t-51 103Q698-301 648-244T533-127q-11 10-25 15t-28 5Zm0-453Zm0 80q33 0 56.5-23.5T560-560q0-33-23.5-56.5T480-640q-33 0-56.5 23.5T400-560q0 33 23.5 56.5T480-480Z"/>
        </svg>
    </symbol>

    <symbol id="not-found" viewBox="0 0 24 24">
        <svg xmlns="http://www.w3.org/2000/svg" height="24px" viewBox="0 -960 960 960" width="24px" fill="currentColor">
            <path d="M240-800v200-200 640-9.5 9.5-640Zm0 720q-33 0-56.5-23.5T160-160v-640q0-33 23.5-56.5T240-880h287q16 0 30.5 6t25.5 17l194 194q11 11 17 25.5t6 30.5v111q0 17-11.5 28.5T760-456q-17 0-28.5-11.5T720-496v-104H600q-33 0-56.5-23.5T520-680v-120H240v640h248q17 0 28.5 11.5T528-120q0 17-11.5 28.5T488-80H240Zm480-103-56 55q-11 11-27.5 11.5T608-128q-11-11-11-28t11-28l56-56-56-56q-11-11-11-28t11-28q11-11 28-11t28 11l56 56 56-56q11-11 27.5-11.5T832-352q11 11 11 28t-11 28l-55 56 55 56q11 11 11.5 27.5T832-128q-11 11-28 11t-28-11l-56-55Z"/>
        </svg>
    </symbol>

    <symbol id="success" viewBox="0 0 24 24">
        <svg xmlns="http://www.w3.org/2000/svg" height="24px" viewBox="0 -960 960 960" width="24px" fill="currentColor">
            <path d="m212-212 282-100-182-182-100 282Zm709-467q-9 9-21 9t-21-9l-3-3q-14-14-35-14t-35 14L603-479q-9 9-21 9t-21-9q-9-9-9-21t9-21l203-203q32-32 77-32t77 32l3 3q9 9 9 21t-9 21ZM399-799q9-9 21-9t21 9l5 5q32 32 32 76t-32 76l-3 3q-9 9-21 9t-21-9q-9-9-9-21t9-21l3-3q14-14 14-34t-14-34l-5-5q-9-9-9-21t9-21Zm162-80q9-9 21-9t21 9l43 43q32 32 32 77t-32 77L523-559q-9 9-21 9t-21-9q-9-9-9-21t9-21l123-123q14-14 14-35t-14-35l-43-43q-9-9-9-21t9-21Zm320 480q-9 9-21 9t-21-9l-43-43q-14-14-35-14t-35 14l-43 43q-9 9-21 9t-21-9q-9-9-9-21t9-21l43-43q32-32 77-32t77 32l43 43q9 9 9 21t-9 21ZM212-212Zm-104 52 151-420q5-13 15.5-20t22.5-7q8 0 15 3t13 9l270 270q6 6 9 13t3 15q0 12-7 22.5T580-259L160-108q-12 5-23 1.5T118-118q-8-8-11.5-19t1.5-23Z"/>
        </svg>
    </symbol>

    <symbol id="check-circle" viewBox="0 0 24 24">
        <svg xmlns="http://www.w3.org/2000/svg" height="24px" viewBox="0 -960 960 960" width="24px" fill="currentColor">
            <path d="m424-408-86-86q-11-11-28-11t-28 11q-11 11-11 28t11 28l114 114q12 12 28 12t28-12l226-226q11-11 11-28t-11-28q-11-11-28-11t-28 11L424-408Zm56 328q-83 0-156-31.5T197-197q-54-54-85.5-127T80-480q0-83 31.5-156T197-763q54-54 127-85.5T480-880q83 0 156 31.5T763-763q54 54 85.5 127T880-480q0 83-31.5 156T763-197q-54 54-127 85.5T480-80Zm0-80q134 0 227-93t93-227q0-134-93-227t-227-93q-134 0-227 93t-93 227q0 134 93 227t227 93Zm0-320Z"/>
        </svg>
    </symbol>

    <symbol id="copy" viewBox="0 0 24 24">
        <svg xmlns="http://www.w3.org/2000/svg" height="24px" viewBox="0 -960 960 960" width="24px" fill="currentColor">
            <path d="M360-240q-33 0-56.5-23.5T280-320v-480q0-33 23.5-56.5T360-880h360q33 0 56.5 23.5T800-800v480q0 33-23.5 56.5T720-240H360Zm0-80h360v-480H360v480ZM200-80q-33 0-56.5-23.5T120-160v-520q0-17 11.5-28.5T160-720q17 0 28.5 11.5T200-680v520h400q17 0 28.5 11.5T640-120q0 17-11.5 28.5T600-80H200Zm160-240v-480 480Z"/>
        </svg>
    </symbol>

    <symbol id="wrong-location" viewBox="0 0 24 24">
        <svg xmlns="http://www.w3.org/2000/svg" height="24px" viewBox="0 -960 960 960" width="24px" fill="currentColor">
            <path d="M480-880q10 0 19.5.5T520-877v81q-10-2-20-3t-20-1q-101 0-170.5 69.5T240-552q0 71 59 162.5T480-186q122-112 181-203.5T720-552q0-2-.5-4t-.5-4h80q0 2 .5 4t.5 4q0 94-68 201T533-127q-11 10-25 15t-28 5q-14 0-28-5t-25-15q-65-60-115-117t-83.5-110.5q-33.5-53.5-51-103T160-552q0-150 96.5-239T480-880Zm0 320Zm279-162 56 56q11 11 28 11t28-11q11-11 11-28t-11-28l-56-56 56-56q11-11 11-28t-11-28q-11-11-28-11t-28 11l-56 56-56-56q-11-11-28-11t-28 11q-11 11-11 28t11 28l56 56-56 56q-11 11-11 28t11 28q11 11 28 11t28-11l56-56ZM480-480q33 0 56.5-23.5T560-560q0-33-23.5-56.5T480-640q-33 0-56.5 23.5T400-560q0 33 23.5 56.5T480-480Z"/>
        </svg>
    </symbol>

    <symbol id="chevron" viewBox="0 0 24 24">
        <svg xmlns="http://www.w3.org/2000/svg" height="24px" viewBox="0 -960 960 960" width="24px" fill="currentColor">
            <path d="M480-361q-8 0-15-2.5t-13-8.5L268-556q-11-11-11-28t11-28q11-11 28-11t28 11l156 156 156-156q11-11 28-11t28 11q11 11 11 28t-11 28L508-372q-6 6-13 8.5t-15 2.5Z"/>
        </svg>
    </symbol>

    <symbol id="error" viewBox="0 0 24 24">
        <svg xmlns="http://www.w3.org/2000/svg" height="24px" viewBox="0 -960 960 960" width="24px" fill="currentColor">
            <path d="M480-280q17 0 28.5-11.5T520-320q0-17-11.5-28.5T480-360q-17 0-28.5 11.5T440-320q0 17 11.5 28.5T480-280Zm0-160q17 0 28.5-11.5T520-480v-160q0-17-11.5-28.5T480-680q-17 0-28.5 11.5T440-640v160q0 17 11.5 28.5T480-440Zm0 360q-83 0-156-31.5T197-197q-54-54-85.5-127T80-480q0-83 31.5-156T197-763q54-54 127-85.5T480-880q83 0 156 31.5T763-763q54 54 85.5 127T880-480q0 83-31.5 156T763-197q-54 54-127 85.5T480-80Zm0-80q134 0 227-93t93-227q0-134-93-227t-227-93q-134 0-227 93t-93 227q0 134 93 227t227 93Zm0-320Z"/>
        </svg>
    </symbol>

    <symbol id="scure-payment" viewBox="0 0 32 32">
        <svg xmlns="http://www.w3.org/2000/svg" width="32" height="32" viewBox="0 0 32 32" fill="none">
            <path d="M14.2883 2.66602L23.7629 5.70602C24.0271 5.79074 24.2581 5.95999 24.4221 6.18907C24.586 6.41814 24.6744 6.69504 24.6743 6.97935V9.33268H27.2708C27.6151 9.33268 27.9453 9.47316 28.1888 9.72321C28.4322 9.97326 28.569 10.3124 28.569 10.666V13.3327H11.6918V10.666C11.6918 10.3124 11.8286 9.97326 12.0721 9.72321C12.3155 9.47316 12.6457 9.33268 12.9901 9.33268H22.0778V7.95935L14.2883 5.45802L6.49883 7.95935V17.8314C6.49865 18.6477 6.68091 19.4531 7.03159 20.1857C7.38226 20.9182 7.89199 21.5583 8.5215 22.0567L8.76687 22.238L14.2883 26.1047L19.1983 22.666H12.9901C12.6457 22.666 12.3155 22.5255 12.0721 22.2755C11.8286 22.0254 11.6918 21.6863 11.6918 21.3327V15.9994H28.569V21.3327C28.569 21.6863 28.4322 22.0254 28.1888 22.2755C27.9453 22.5255 27.6151 22.666 27.2708 22.666L23.0904 22.6674C22.588 23.3474 21.9778 23.9474 21.2729 24.4407L14.2883 29.3327L7.30375 24.442C6.25544 23.708 5.3976 22.722 4.80481 21.5699C4.21201 20.4178 3.90221 19.1344 3.90234 17.8314V6.97935C3.9025 6.69527 3.991 6.41867 4.15493 6.18986C4.31887 5.96106 4.54968 5.792 4.81371 5.70735L14.2883 2.66602Z" fill="#484A4C"/>
        </svg>
    </symbol>

    <symbol id="feather" viewBox="0 0 28 28">
        <svg xmlns="http://www.w3.org/2000/svg" width="28" height="28" viewBox="0 0 28 28" fill="none">
            <path d="M23.6133 14.28C24.9267 12.9665 25.6646 11.185 25.6646 9.3275C25.6646 7.46995 24.9267 5.68849 23.6133 4.375C22.2998 3.06152 20.5183 2.32361 18.6608 2.32361C16.8032 2.32361 15.0217 3.06152 13.7083 4.375L5.83325 12.25V22.1667H15.7499L23.6133 14.28Z" stroke="currentColor" stroke-width="2" stroke-linecap="round" stroke-linejoin="round"/>
            <path d="M18.6666 9.33337L2.33325 25.6667" stroke="currentColor" stroke-width="2" stroke-linecap="round" stroke-linejoin="round"/>
            <path d="M20.4167 17.5H10.5" stroke="currentColor" stroke-width="2" stroke-linecap="round" stroke-linejoin="round"/>
        </svg>
    </symbol>

    <symbol id="guidelines" viewBox="0 0 24 24">
        <svg xmlns="http://www.w3.org/2000/svg" height="24px" viewBox="0 -960 960 960" width="24px" fill="currentColor">
            <path d="M222-180h515L620-297q-29 23-64.5 35T480-250q-40 0-75.5-12.5T340-298L222-180Zm-42-43 117-117q-23-29-35-64.5T250-480q0-40 12.5-75.5T298-620L180-738v515Zm160-160 98-97-97-97q-14 21-22.5 45.5T310-480q0 27 8 51.5t22 45.5Zm140 73q27 0 51.5-8t45.5-22l-97-98-97 97q21 14 45.5 22.5T480-310Zm0-213 97-96q-21-14-45.5-22.5T480-650q-27 0-52 8t-45 22l97 97Zm140 140q14-20 22-45t8-52q0-27-8.5-51.5T619-577l-97 96 98 98Zm160 160v-515L662-620q23 29 35.5 64.5T710-480q0 40-12 75.5T663-340l117 117ZM620-662l118-118H223l117 117q29-23 64.5-35t75.5-12q40 0 75.5 12.5T620-662ZM180-120q-24 0-42-18t-18-42v-600q0-24 18-42t42-18h600q24 0 42 18t18 42v600q0 24-18 42t-42 18H180Z"/>
        </svg>
    </symbol>

    <symbol id="mastercard" viewBox="0 0 41 32">
        <svg xmlns="http://www.w3.org/2000/svg" width="41" height="32" viewBox="0 0 41 32" fill="none">
            <g clip-path="url(#clip0_1101_25309)">
                <path d="M7.64134 31.841V29.723C7.64134 28.9109 7.15399 28.3816 6.31866 28.3816C5.90108 28.3816 5.44862 28.5228 5.13535 28.9817C4.89183 28.5934 4.54385 28.3816 4.02179 28.3816C3.67364 28.3816 3.32581 28.4874 3.04726 28.8757V28.4522H2.31641V31.841H3.04726V29.97C3.04726 29.37 3.36053 29.0875 3.84787 29.0875C4.3349 29.0875 4.57872 29.4053 4.57872 29.97V31.841H5.30958V29.97C5.30958 29.37 5.65741 29.0875 6.10987 29.0875C6.59721 29.0875 6.84073 29.4053 6.84073 29.97V31.841H7.64134ZM18.4648 28.4522H17.2816V27.4285H16.5508V28.4522H15.8895V29.1227H16.5506V30.6761C16.5506 31.4528 16.8639 31.9115 17.6992 31.9115C18.0125 31.9115 18.3603 31.8057 18.6041 31.6645L18.3952 31.0291C18.1864 31.1702 17.9429 31.2056 17.7688 31.2056C17.4208 31.2056 17.2816 30.9938 17.2816 30.6407V29.1227H18.4648V28.4522ZM24.6598 28.3814C24.2422 28.3814 23.9638 28.5934 23.7897 28.8757V28.4522H23.0589V31.841H23.7897V29.9348C23.7897 29.37 24.0332 29.0523 24.4857 29.0523C24.6249 29.0523 24.799 29.0877 24.9382 29.1229L25.147 28.417C25.0078 28.3816 24.799 28.3816 24.6598 28.3816M15.2979 28.7347C14.9497 28.4875 14.4625 28.3817 13.9405 28.3817C13.1053 28.3817 12.5485 28.8053 12.5485 29.476C12.5485 30.0409 12.9661 30.3585 13.697 30.4645L14.0449 30.4998C14.4278 30.5703 14.6366 30.6762 14.6366 30.8528C14.6366 31.0998 14.3582 31.2764 13.8709 31.2764C13.3835 31.2764 13.0008 31.0998 12.7572 30.9234L12.4092 31.4881C12.792 31.7705 13.3141 31.9117 13.836 31.9117C14.8105 31.9117 15.3675 31.4529 15.3675 30.8174C15.3675 30.2173 14.915 29.8996 14.2189 29.7938L13.8709 29.7584C13.5576 29.723 13.3141 29.6526 13.3141 29.4408C13.3141 29.1936 13.5576 29.0524 13.9405 29.0524C14.3582 29.0524 14.7758 29.2289 14.9846 29.3348L15.2979 28.7347ZM34.7178 28.3817C34.3001 28.3817 34.0217 28.5935 33.8476 28.8759V28.4523H33.1168V31.8411H33.8476V29.9349C33.8476 29.3702 34.0913 29.0524 34.5436 29.0524C34.6829 29.0524 34.857 29.0878 34.9962 29.123L35.205 28.4171C35.0658 28.3817 34.857 28.3817 34.7178 28.3817ZM25.3906 30.1467C25.3906 31.1704 26.0866 31.9117 27.1656 31.9117C27.6528 31.9117 28.0008 31.8059 28.3488 31.5235L28.0008 30.9234C27.7224 31.1352 27.444 31.241 27.1307 31.241C26.5391 31.241 26.1215 30.8174 26.1215 30.1467C26.1215 29.5114 26.5391 29.0877 27.1307 29.0524C27.444 29.0524 27.7224 29.1583 28.0008 29.3702L28.3488 28.7701C28.0008 28.4875 27.6528 28.3817 27.1656 28.3817C26.0866 28.3817 25.3906 29.123 25.3906 30.1467ZM32.1424 30.1467V28.4523H31.4115V28.8759C31.1679 28.5583 30.8199 28.3817 30.3674 28.3817C29.4278 28.3817 28.6969 29.123 28.6969 30.1467C28.6969 31.1704 29.4278 31.9117 30.3674 31.9117C30.8546 31.9117 31.2027 31.7353 31.4115 31.4176V31.8411H32.1424V30.1467ZM29.4625 30.1467C29.4625 29.5466 29.8454 29.0524 30.4717 29.0524C31.0634 29.0524 31.4811 29.5114 31.4811 30.1467C31.4811 30.7468 31.0634 31.241 30.4717 31.241C29.8454 31.2056 29.4625 30.7468 29.4625 30.1467ZM20.7271 28.3817C19.7526 28.3817 19.0565 29.0877 19.0565 30.1467C19.0565 31.2058 19.7524 31.9117 20.7618 31.9117C21.249 31.9117 21.7364 31.7705 22.1192 31.4529L21.7711 30.9234C21.4927 31.1352 21.1447 31.2764 20.7967 31.2764C20.3442 31.2764 19.8918 31.0646 19.7873 30.4643H22.2584V30.1821C22.2933 29.0877 21.6669 28.3817 20.7271 28.3817ZM20.727 29.0171C21.1793 29.0171 21.4927 29.2996 21.5621 29.8291H19.822C19.8916 29.3702 20.2049 29.0171 20.727 29.0171ZM38.8591 30.1467V27.1109H38.1283V28.8759C37.8846 28.5583 37.5366 28.3817 37.0841 28.3817C36.1445 28.3817 35.4136 29.123 35.4136 30.1467C35.4136 31.1704 36.1445 31.9117 37.0841 31.9117C37.5715 31.9117 37.9195 31.7353 38.1283 31.4176V31.8411H38.8591V30.1467ZM36.1794 30.1467C36.1794 29.5466 36.5621 29.0524 37.1886 29.0524C37.7803 29.0524 38.1979 29.5114 38.1979 30.1467C38.1979 30.7468 37.7803 31.241 37.1886 31.241C36.5621 31.2056 36.1794 30.7468 36.1794 30.1467ZM11.7478 30.1467V28.4523H11.0169V28.8759C10.7732 28.5583 10.4252 28.3817 9.97278 28.3817C9.03313 28.3817 8.30228 29.123 8.30228 30.1467C8.30228 31.1704 9.03313 31.9117 9.97278 31.9117C10.4601 31.9117 10.8081 31.7353 11.0169 31.4176V31.8411H11.7478V30.1467ZM9.03313 30.1467C9.03313 29.5466 9.416 29.0524 10.0424 29.0524C10.634 29.0524 11.0518 29.5114 11.0518 30.1467C11.0518 30.7468 10.634 31.241 10.0424 31.241C9.416 31.2056 9.03313 30.7468 9.03313 30.1467Z" fill="#1D1E1F"/>
                <path d="M15.0547 2.71808H26.0175V22.6981H15.0547V2.71808Z" fill="#FF5F00"/>
                <path d="M15.751 12.7082C15.751 8.64868 17.6303 5.04796 20.5188 2.71807C18.396 1.02368 15.7162 0 12.7928 0C5.86683 0 0.263672 5.68329 0.263672 12.7082C0.263672 19.7331 5.86683 25.4164 12.7927 25.4164C15.7161 25.4164 18.3958 24.3927 20.5188 22.6981C17.6303 20.4036 15.751 16.7677 15.751 12.7082Z" fill="#EB001B"/>
                <path d="M40.8079 12.7082C40.8079 19.7329 35.2047 25.4164 28.2789 25.4164C25.3554 25.4164 22.6757 24.3927 20.5527 22.6981C23.4762 20.3684 25.3207 16.7677 25.3207 12.7082C25.3207 8.64868 23.4413 5.04796 20.5527 2.71807C22.6755 1.02368 25.3554 0 28.2789 0C35.2047 0 40.8079 5.71867 40.8079 12.7082Z" fill="#F79E1B"/>
            </g>
            <defs>
                <clipPath id="clip0_1101_25309">
                    <rect width="40.5854" height="32" fill="white" transform="translate(0.263672)"/>
                </clipPath>
            </defs>
        </svg>
    </symbol>

    <symbol id="visa" viewBox="0 0 65 30">
        <svg xmlns="http://www.w3.org/2000/svg" width="65" height="30" viewBox="0 0 65 30" fill="none">
            <g clip-path="url(#clip0_1101_25307)">
                <path d="M24.4974 0.871404L16.1044 21.2116H10.6289L6.49861 4.97821C6.2482 3.98076 6.0306 3.61368 5.26859 3.19191C4.02305 2.50456 1.96617 1.86173 0.158203 1.46183L0.280153 0.871404H9.09563C10.2175 0.871404 11.2276 1.63024 11.4846 2.94414L13.6669 14.7153L19.0547 0.871404H24.4974ZM31.8996 0.871404L27.6168 21.2116H22.4363L26.7196 0.871404H31.8996ZM45.9516 14.5706C45.9732 9.20331 38.6462 8.90542 38.694 6.50732C38.7115 5.77825 39.3951 5.00212 40.8916 4.8037C41.6328 4.70627 43.6807 4.62868 46.0002 5.7144L46.9077 1.39849C45.6614 0.940597 44.0575 0.5 42.0625 0.5C36.9416 0.5 33.3394 3.26314 33.3106 7.22291C33.2771 10.1519 35.8836 11.7843 37.8438 12.7599C39.8629 13.7561 40.54 14.3963 40.5307 15.2867C40.5162 16.6515 38.9181 17.2556 37.4324 17.278C34.8271 17.32 33.3169 16.5627 32.1122 15.9926L31.1719 20.4515C32.3839 21.0157 34.6175 21.5059 36.9311 21.5309C42.375 21.5309 45.9356 18.7993 45.9516 14.5706ZM59.4739 21.2119H64.2635L60.0791 0.871404H55.6601C54.6635 0.871404 53.8258 1.45904 53.4542 2.36236L45.6815 21.2116H51.1211L52.2002 18.1732H58.8461L59.4739 21.2119ZM53.6919 14.0054L56.4193 6.3669L57.9862 14.0054H53.6919ZM38.5295 26.8106H36.4245V28.8007H38.7789V29.399H35.7153V23.8781H38.6582V24.4764H36.4245V26.2207H38.5292L38.5295 26.8106ZM39.8664 23.5835H40.5756V29.3988H39.8664V23.5835ZM42.365 27.5476C42.381 28.5226 42.986 28.9238 43.7032 28.9238C44.2115 28.9238 44.5258 28.8338 44.7842 28.7193L44.9129 29.2354C44.663 29.3499 44.2278 29.4891 43.6065 29.4891C42.4056 29.4891 41.6881 28.6783 41.6881 27.4822C41.6881 26.2866 42.381 25.3525 43.5182 25.3525C44.8003 25.3525 45.1308 26.4832 45.1308 27.2121C45.1308 27.3593 45.1225 27.4657 45.1063 27.5478L42.365 27.5476ZM44.4452 27.0317C44.4534 26.5814 44.2599 25.8686 43.4616 25.8686C42.7359 25.8686 42.4294 26.5321 42.3728 27.0317H44.4452ZM48.9911 29.2596C48.8058 29.3499 48.3944 29.4893 47.8705 29.4893C46.6934 29.4893 45.9274 28.6783 45.9274 27.4659C45.9274 26.2454 46.7495 25.3527 48.0236 25.3527C48.4427 25.3527 48.8136 25.4588 49.0072 25.5657L48.8464 26.1144C48.6764 26.0243 48.4104 25.9256 48.0236 25.9256C47.1283 25.9256 46.645 26.6056 46.645 27.4252C46.645 28.3423 47.2255 28.9075 47.9995 28.9075C48.4027 28.9075 48.6686 28.8093 48.8702 28.7193L48.9911 29.2596ZM50.9814 24.4843V25.4344H51.9971V25.9829H50.9814V28.121C50.9814 28.613 51.1186 28.891 51.5135 28.891C51.7068 28.891 51.82 28.875 51.925 28.8417L51.9573 29.3911C51.82 29.44 51.6024 29.4891 51.3282 29.4891C50.9974 29.4891 50.7312 29.3743 50.5622 29.1863C50.3687 28.9648 50.288 28.613 50.288 28.1459V25.9829H49.683V25.4344H50.288V24.6972L50.9814 24.4843ZM52.9879 26.6715C52.9879 26.2044 52.9794 25.8033 52.9557 25.4344H53.5767L53.6092 26.2205H53.6328C53.8106 25.6885 54.2455 25.3525 54.721 25.3525C54.7939 25.3525 54.8505 25.3609 54.9151 25.3688V26.049C54.8425 26.0322 54.7701 26.0322 54.6727 26.0322C54.1734 26.0322 53.8181 26.409 53.7217 26.95C53.705 27.0612 53.6969 27.1734 53.6974 27.2858V29.3993H52.9879V26.6715ZM59.276 27.3838C59.276 28.85 58.2679 29.4891 57.3328 29.4891C56.2844 29.4891 55.4623 28.7025 55.4623 27.4497C55.4623 26.1307 56.3249 25.3527 57.3974 25.3527C58.518 25.3527 59.276 26.1792 59.276 27.3838ZM56.1877 27.4252C56.1877 28.2934 56.6715 28.949 57.3649 28.949C58.0425 28.949 58.5501 28.3013 58.5501 27.4087C58.5501 26.7371 58.2195 25.8931 57.3809 25.8931C56.5508 25.8931 56.1877 26.6799 56.1877 27.4252ZM60.3633 26.5077C60.3633 26.0902 60.3548 25.7623 60.3308 25.4349H60.9598L61.0001 26.0902H61.0161C61.2097 25.7214 61.6612 25.353 62.3063 25.353C62.8461 25.353 63.685 25.6807 63.685 27.0398V29.3993H62.9756V27.1139C62.9756 26.4754 62.7417 25.9424 62.0726 25.9424C61.6129 25.9424 61.2498 26.2785 61.1213 26.6796C61.0888 26.7699 61.0727 26.8925 61.0727 27.0157V29.3993H60.3633V26.5077Z" fill="#1A1F71"/>
            </g>
            <defs>
                <clipPath id="clip0_1101_25307">
                    <rect width="64.1053" height="29" fill="white" transform="translate(0.158203 0.5)"/>
                </clipPath>
            </defs>
        </svg>
    </symbol>
</svg>