<svg xmlns="http://www.w3.org/2000/svg" style="display:none;">

    <!--
    1º Go to the bottom of the file & copy the sample symbol below
    2º Paste the svg inside the sample symbol you've copied
    3º The viewbox of the symbol must be `0 0 svg-width svg-height` 
        *not necessarily the same viewbox as the svg
    4º format document
    5º Set the id of the symbol, this will be the icon name
    6º Add this id to @/types/global.d.ts IconName.
    
    Icon libraries:
    - https://nucleoapp.com/social-media-icons
    - https://fonts.google.com/icons?icon.style=Rounded&icon.size=24&icon.color=%23e3e3e3
    -->

    <symbol id="arrow-back" viewBox="0 0 24 24">
        <svg xmlns="http://www.w3.org/2000/svg" height="24px" viewBox="0 -960 960 960" width="24px" fill="currentColor">
            <path d="m313-440 196 196q12 12 11.5 28T508-188q-12 11-28 11.5T452-188L188-452q-6-6-8.5-13t-2.5-15q0-8 2.5-15t8.5-13l264-264q11-11 27.5-11t28.5 11q12 12 12 28.5T508-715L313-520h447q17 0 28.5 11.5T800-480q0 17-11.5 28.5T760-440H313Z"/>
        </svg>
    </symbol>

    <symbol id="refresh" viewBox="0 0 24 24">
        <svg xmlns="http://www.w3.org/2000/svg" height="24px" width="24px" fill="currentColor" viewBox="0 -960 960 960">
            <path d="M481-158q-131 0-225.5-94.5T161-478v-45l-61 61q-8 8-19 8t-19-8q-8-8-8-19.5t8-19.5l108-109q9-9 21-9t21 9l109 109q8 8 8 19t-8 19q-8 8-19.5 8t-19.5-8l-61-60v45q0 107 76.5 183.5T481-218q20 0 39-2.5t36-7.5q12-3 23.5 1.5T596-211q5 11 0 22t-17 15q-24 8-48.5 12t-49.5 4Zm-1-580q-20 0-39 2.5t-36 7.5q-12 3-24-1.5T364-745q-5-11 0-22.5t16-15.5q25-8 49.5-11.5T480-798q131 0 225.5 94.5T800-478v43l61-61q8-8 19-8t19 8q8 8 8 19.5t-8 19.5L791-348q-9 9-21 9t-21-9L641-456q-8-8-8-20t8-20q8-8 20-8t20 8l59 59v-41q0-107-76.5-183.5T480-738Z"/>
        </svg>
    </symbol>

    <symbol id="motion-arrow" viewBox="0 0 24 24">
        <svg xmlns="http://www.w3.org/2000/svg" height="24px" viewBox="0 -960 960 960" width="24px" fill="currentColor">
            <path d="M480-84q-8 0-15-3t-13-9L228-319q-11-11-11-28t11-29q12-12 28.5-12t28.5 12l155 156v-247q0-17 11.5-28.5T480-507q17 0 28.5 11.5T520-467v247l156-156q11-11 27.5-11t28.5 12q11 11 11 28t-11 28L508-96q-6 6-13 9t-15 3Zm0-503q-17 0-28.5-11.5T440-627v-40q0-17 11.5-28.5T480-707q17 0 28.5 11.5T520-667v40q0 17-11.5 28.5T480-587Zm0-200q-17 0-28.5-11.5T440-827q0-17 11.5-28.5T480-867q17 0 28.5 11.5T520-827q0 17-11.5 28.5T480-787Z"/>
        </svg>
    </symbol>

    <symbol id="menu" viewBox="0 0 24 24">
        <svg xmlns="http://www.w3.org/2000/svg" height="24px" viewBox="0 -960 960 960" width="24px" fill="currentColor">
            <path d="M160-240q-17 0-28.5-11.5T120-280q0-17 11.5-28.5T160-320h640q17 0 28.5 11.5T840-280q0 17-11.5 28.5T800-240H160Zm0-200q-17 0-28.5-11.5T120-480q0-17 11.5-28.5T160-520h640q17 0 28.5 11.5T840-480q0 17-11.5 28.5T800-440H160Zm0-200q-17 0-28.5-11.5T120-680q0-17 11.5-28.5T160-720h640q17 0 28.5 11.5T840-680q0 17-11.5 28.5T800-640H160Z"/>
        </svg>
    </symbol>

    <symbol id="summary" viewBox="0 0 24 24">
        <svg xmlns="http://www.w3.org/2000/svg" width="24" height="24" viewBox="0 0 24 24" fill="none">
            <path d="M19.8262 3.31114L7.6153 1.15489C7.37276 1.11198 7.12414 1.11728 6.88365 1.17049C6.64316 1.22369 6.4155 1.32376 6.21369 1.46497C6.01189 1.60619 5.83988 1.78578 5.7075 1.99349C5.57512 2.2012 5.48496 2.43295 5.44217 2.67552L2.65311 18.5193C2.567 19.0088 2.67881 19.5125 2.96395 19.9197C3.2491 20.3268 3.68424 20.6041 4.17374 20.6905L16.3847 22.8468C16.4936 22.8661 16.604 22.8758 16.7147 22.8758C17.156 22.876 17.5833 22.7206 17.9213 22.4368C18.2593 22.1529 18.4864 21.759 18.5625 21.3243L21.3516 5.48052C21.3939 5.23792 21.388 4.98936 21.3342 4.74903C21.2805 4.50871 21.1799 4.28133 21.0383 4.07988C20.8966 3.87843 20.7167 3.70685 20.5087 3.57495C20.3008 3.44305 20.0688 3.3534 19.8262 3.31114ZM16.4062 20.5649L4.93405 18.539L7.59374 3.43489L19.0659 5.46083L16.4062 20.5649ZM8.61561 6.28114C8.66751 5.9874 8.83394 5.7263 9.07831 5.55524C9.32268 5.38418 9.62498 5.31717 9.91874 5.36895L16.2187 6.48176C16.5005 6.52497 16.7553 6.6735 16.9318 6.89736C17.1082 7.12121 17.1931 7.4037 17.1693 7.68774C17.1455 7.97178 17.0148 8.23619 16.8035 8.42755C16.5923 8.61891 16.3162 8.72294 16.0312 8.71864C15.9653 8.71853 15.8994 8.71288 15.8344 8.70176L9.5278 7.58426C9.23406 7.53237 8.97296 7.36594 8.8019 7.12157C8.63084 6.8772 8.56383 6.5749 8.61561 6.28114ZM7.96874 9.97395C7.99443 9.82841 8.04855 9.68936 8.128 9.56474C8.20745 9.44012 8.31067 9.33238 8.43177 9.24767C8.55288 9.16296 8.68948 9.10294 8.83379 9.07104C8.9781 9.03914 9.12728 9.03599 9.2728 9.06176L15.5747 10.1755C15.8513 10.2253 16.0992 10.3769 16.2697 10.6004C16.4402 10.8238 16.5208 11.103 16.4958 11.3829C16.4708 11.6629 16.3418 11.9233 16.1344 12.113C15.927 12.3026 15.6561 12.4078 15.375 12.4077C15.309 12.4076 15.2431 12.402 15.1781 12.3908L8.87718 11.2771C8.58413 11.2243 8.32395 11.0575 8.15366 10.8132C7.98338 10.569 7.91688 10.2672 7.96874 9.97395ZM7.31249 13.6668C7.36439 13.373 7.53082 13.1119 7.77518 12.9409C8.01955 12.7698 8.32185 12.7028 8.61561 12.7546L11.7694 13.3124C12.0466 13.361 12.2956 13.5117 12.4672 13.7349C12.6387 13.9581 12.7204 14.2375 12.696 14.5179C12.6716 14.7984 12.543 15.0595 12.3355 15.2497C12.1281 15.44 11.8568 15.5455 11.5753 15.5455C11.5093 15.5456 11.4434 15.5396 11.3784 15.5277L8.22749 14.9718C8.0816 14.9464 7.94216 14.8925 7.81715 14.8131C7.69215 14.7338 7.58404 14.6305 7.49903 14.5092C7.41403 14.388 7.35379 14.2512 7.32178 14.1066C7.28976 13.962 7.28661 13.8126 7.31249 13.6668Z" fill="white"/>
        </svg>
    </symbol>

    <symbol id="log-out" viewBox="0 0 24 24">
        <svg xmlns="http://www.w3.org/2000/svg" width="24" height="24" viewBox="0 0 24 24" fill="none">
            <path d="M15 3H7C6.46957 3 5.96086 3.21071 5.58579 3.58579C5.21071 3.96086 5 4.46957 5 5V19C5 19.5304 5.21071 20.0391 5.58579 20.4142C5.96086 20.7893 6.46957 21 7 21H15M19 12L15 8M19 12L15 16M19 12H9" stroke="currentColor" stroke-width="2" stroke-linecap="round" stroke-linejoin="round"/>
        </svg>
    </symbol>

    <symbol id="settings" viewBox="0 0 24 24">
        <svg xmlns="http://www.w3.org/2000/svg" width="24" height="24" viewBox="0 0 24 24" fill="none">
            <path d="M12 7.12507C11.0358 7.12507 10.0933 7.41099 9.2916 7.94666C8.48991 8.48233 7.86507 9.2437 7.49609 10.1345C7.12711 11.0253 7.03057 12.0055 7.21867 12.9511C7.40678 13.8968 7.87107 14.7654 8.55286 15.4472C9.23464 16.129 10.1033 16.5933 11.0489 16.7814C11.9946 16.9695 12.9748 16.873 13.8656 16.504C14.7564 16.135 15.5177 15.5102 16.0534 14.7085C16.5891 13.9068 16.875 12.9643 16.875 12.0001C16.8735 10.7076 16.3594 9.46849 15.4455 8.55457C14.5316 7.64065 13.2925 7.12656 12 7.12507ZM12 14.6251C11.4808 14.6251 10.9733 14.4711 10.5416 14.1827C10.11 13.8942 9.7735 13.4843 9.57482 13.0046C9.37614 12.525 9.32415 11.9972 9.42544 11.488C9.52673 10.9788 9.77673 10.511 10.1438 10.1439C10.511 9.77681 10.9787 9.5268 11.4879 9.42551C11.9971 9.32423 12.5249 9.37621 13.0045 9.57489C13.4842 9.77357 13.8942 10.11 14.1826 10.5417C14.471 10.9734 14.625 11.4809 14.625 12.0001C14.625 12.6963 14.3484 13.3639 13.8562 13.8562C13.3639 14.3485 12.6962 14.6251 12 14.6251ZM20.625 12.0741V11.926L21.9375 10.2844C22.0477 10.1469 22.124 9.9854 22.1603 9.81295C22.1966 9.6405 22.1919 9.46193 22.1466 9.29164C21.9097 8.3983 21.5557 7.54022 21.0938 6.73976C21.0048 6.58712 20.8811 6.45758 20.7327 6.36165C20.5843 6.26571 20.4154 6.20608 20.2397 6.18757L18.1509 5.9532L18.0469 5.84914L17.8125 3.75945C17.7939 3.58389 17.7342 3.41519 17.6382 3.26698C17.5423 3.11878 17.4128 2.99523 17.2603 2.90632C16.4598 2.44291 15.6014 2.08763 14.7075 1.84976C14.5371 1.80508 14.3585 1.80106 14.1862 1.83802C14.0139 1.87499 13.8527 1.9519 13.7156 2.06257L12.0741 3.37507H11.9259L10.2844 2.06257C10.1468 1.9524 9.98532 1.87608 9.81288 1.83977C9.64043 1.80345 9.46186 1.80816 9.29156 1.85351C8.39799 2.09183 7.53991 2.44742 6.73969 2.91101C6.58764 2.99955 6.45848 3.12251 6.36257 3.27002C6.26667 3.41754 6.20671 3.58549 6.1875 3.76039L5.95313 5.84914L5.84906 5.9532L3.75938 6.18757C3.58382 6.20622 3.41512 6.26592 3.26691 6.36185C3.1187 6.45778 2.99515 6.58724 2.90625 6.73976C2.44414 7.54048 2.09012 8.39888 1.85344 9.29257C1.80824 9.46273 1.80362 9.64112 1.83993 9.81339C1.87624 9.98566 1.95247 10.147 2.0625 10.2844L3.375 11.926V12.0741L2.0625 13.7157C1.95233 13.8532 1.87601 14.0148 1.83969 14.1872C1.80338 14.3596 1.80809 14.5382 1.85344 14.7085C2.09206 15.6021 2.44796 16.4602 2.91188 17.2604C3.00032 17.4123 3.12314 17.5414 3.27048 17.6373C3.41782 17.7332 3.58558 17.7932 3.76031 17.8126L5.84906 18.0451L5.95313 18.1491L6.1875 20.2407C6.20615 20.4163 6.26585 20.585 6.36178 20.7332C6.4577 20.8814 6.58716 21.0049 6.73969 21.0938C7.54021 21.5572 8.39862 21.9125 9.2925 22.1504C9.46295 22.1951 9.6415 22.1991 9.81379 22.1621C9.98607 22.1252 10.1473 22.0482 10.2844 21.9376L11.9259 20.6251H12.0741L13.7156 21.9376C13.8532 22.0477 14.0147 22.1241 14.1871 22.1604C14.3596 22.1967 14.5381 22.192 14.7084 22.1466C15.6018 21.9098 16.4598 21.5558 17.2603 21.0938C17.4127 21.0055 17.5422 20.8826 17.6385 20.7351C17.7347 20.5876 17.795 20.4195 17.8144 20.2444L18.0469 18.1557L18.1509 18.0516L20.2406 17.8126C20.4157 17.7932 20.5838 17.7329 20.7313 17.6367C20.8788 17.5404 21.0017 17.4109 21.09 17.2585C21.5534 16.458 21.9087 15.5996 22.1466 14.7057C22.1914 14.5358 22.1959 14.3578 22.1596 14.1859C22.1233 14.014 22.0472 13.8529 21.9375 13.7157L20.625 12.0741ZM18.3638 11.6157C18.3788 11.8717 18.3788 12.1284 18.3638 12.3844C18.347 12.6628 18.4342 12.9374 18.6084 13.1551L19.8122 14.6598C19.6986 14.9961 19.563 15.3246 19.4062 15.6432L17.4909 15.856C17.2136 15.8877 16.958 16.0214 16.7738 16.231C16.6034 16.4229 16.4219 16.6045 16.23 16.7748C16.0204 16.959 15.8867 17.2146 15.855 17.4919L15.6431 19.4063C15.3246 19.5637 14.9961 19.6999 14.6597 19.8141L13.155 18.6094C12.9553 18.4501 12.7073 18.3635 12.4519 18.3638C12.4294 18.3638 12.4069 18.3638 12.3844 18.3638C12.1283 18.3788 11.8717 18.3788 11.6156 18.3638C11.3375 18.3473 11.0631 18.4341 10.845 18.6076L9.34031 19.8123C9.00397 19.6986 8.67545 19.563 8.35688 19.4063L8.14406 17.491C8.11236 17.2137 7.9787 16.9581 7.76906 16.7738C7.57719 16.6035 7.39562 16.4219 7.22531 16.2301C7.04105 16.0204 6.78543 15.8868 6.50813 15.8551L4.59375 15.6432C4.43641 15.3247 4.30018 14.9962 4.18594 14.6598L5.38969 13.1551C5.56393 12.9374 5.65113 12.6628 5.63438 12.3844C5.61937 12.1284 5.61937 11.8717 5.63438 11.6157C5.65113 11.3374 5.56393 11.0627 5.38969 10.8451L4.18781 9.34039C4.30145 9.00404 4.43705 8.67552 4.59375 8.35695L6.50906 8.14414C6.78637 8.11243 7.04198 7.97877 7.22625 7.76914C7.39656 7.57726 7.57813 7.39569 7.77 7.22539C7.97964 7.04112 8.1133 6.7855 8.145 6.5082L8.35688 4.59382C8.6754 4.43648 9.00392 4.30025 9.34031 4.18601L10.845 5.3907C11.0631 5.56413 11.3375 5.65093 11.6156 5.63445C11.8717 5.61945 12.1283 5.61945 12.3844 5.63445C12.6626 5.65147 12.9372 5.5646 13.155 5.3907L14.6597 4.18601C14.9961 4.30025 15.3246 4.43648 15.6431 4.59382L15.8559 6.50914C15.8876 6.78644 16.0213 7.04206 16.2309 7.22632C16.4228 7.39663 16.6044 7.5782 16.7747 7.77007C16.959 7.97971 17.2146 8.11337 17.4919 8.14507L19.4062 8.35695C19.5636 8.67547 19.6998 9.00399 19.8141 9.34039L18.6103 10.8451C18.4354 11.0625 18.3475 11.3371 18.3638 11.6157Z" fill="white"/>
        </svg>
    </symbol>

    <symbol id="undo" viewBox="0 0 24 24">
        <svg xmlns="http://www.w3.org/2000/svg" height="24px" viewBox="0 -960 960 960" width="24px" fill="#e3e3e3">
            <path d="M320-200q-17 0-28.5-11.5T280-240q0-17 11.5-28.5T320-280h244q63 0 109.5-40T720-420q0-60-46.5-100T564-560H312l76 76q11 11 11 28t-11 28q-11 11-28 11t-28-11L188-572q-6-6-8.5-13t-2.5-15q0-8 2.5-15t8.5-13l144-144q11-11 28-11t28 11q11 11 11 28t-11 28l-76 76h252q97 0 166.5 63T800-420q0 94-69.5 157T564-200H320Z"/>
        </svg>
    </symbol>

    <symbol id="guidelines" viewBox="0 0 24 24">
        <svg xmlns="http://www.w3.org/2000/svg" height="24px" viewBox="0 -960 960 960" width="24px" fill="currentColor">
            <path d="M222-180h515L620-297q-29 23-64.5 35T480-250q-40 0-75.5-12.5T340-298L222-180Zm-42-43 117-117q-23-29-35-64.5T250-480q0-40 12.5-75.5T298-620L180-738v515Zm160-160 98-97-97-97q-14 21-22.5 45.5T310-480q0 27 8 51.5t22 45.5Zm140 73q27 0 51.5-8t45.5-22l-97-98-97 97q21 14 45.5 22.5T480-310Zm0-213 97-96q-21-14-45.5-22.5T480-650q-27 0-52 8t-45 22l97 97Zm140 140q14-20 22-45t8-52q0-27-8.5-51.5T619-577l-97 96 98 98Zm160 160v-515L662-620q23 29 35.5 64.5T710-480q0 40-12 75.5T663-340l117 117ZM620-662l118-118H223l117 117q29-23 64.5-35t75.5-12q40 0 75.5 12.5T620-662ZM180-120q-24 0-42-18t-18-42v-600q0-24 18-42t42-18h600q24 0 42 18t18 42v600q0 24-18 42t-42 18H180Z"/>
        </svg>
    </symbol>

    <symbol id="phone" viewBox="0 0 24 24">
        <svg xmlns="http://www.w3.org/2000/svg" height="24px" viewBox="0 -960 960 960" width="24px" fill="currentColor">
            <path d="M798-120q-125 0-247-54.5T329-329Q229-429 174.5-551T120-798q0-18 12-30t30-12h162q14 0 25 9.5t13 22.5l26 140q2 16-1 27t-11 19l-97 98q20 37 47.5 71.5T387-386q31 31 65 57.5t72 48.5l94-94q9-9 23.5-13.5T670-390l138 28q14 4 23 14.5t9 23.5v162q0 18-12 30t-30 12ZM241-600l66-66-17-94h-89q5 41 14 81t26 79Zm358 358q39 17 79.5 27t81.5 13v-88l-94-19-67 67ZM241-600Zm358 358Z"/>
        </svg>
    </symbol>

    <symbol id="apple" viewBox="0 0 24 24">
        <svg xmlns="http://www.w3.org/2000/svg" viewBox="0 0 24 24">
            <path d="M12.152 6.896c-.948 0-2.415-1.078-3.96-1.04-2.04.027-3.91 1.183-4.961 3.014-2.117 3.675-.546 9.103 1.519 12.09 1.013 1.454 2.208 3.09 3.792 3.039 1.52-.065 2.09-.987 3.935-.987 1.831 0 2.35.987 3.96.948 1.637-.026 2.676-1.48 3.676-2.948 1.156-1.688 1.636-3.325 1.662-3.415-.039-.013-3.182-1.221-3.22-4.857-.026-3.04 2.48-4.494 2.597-4.559-1.429-2.09-3.623-2.324-4.39-2.376-2-.156-3.675 1.09-4.61 1.09zM15.53 3.83c.843-1.012 1.4-2.427 1.245-3.83-1.207.052-2.662.805-3.532 1.818-.78.896-1.454 2.338-1.273 3.714 1.338.104 2.715-.688 3.559-1.701" fill="currentColor" />
        </svg>
    </symbol>

    <symbol id="google" viewBox="0 0 24 24">
        <svg xmlns="http://www.w3.org/2000/svg" viewBox="0 0 24 24">
            <path d="M12.48 10.92v3.28h7.84c-.24 1.84-.853 3.187-1.787 4.133-1.147 1.147-2.933 2.4-6.053 2.4-4.827 0-8.6-3.893-8.6-8.72s3.773-8.72 8.6-8.72c2.6 0 4.507 1.027 5.907 2.347l2.307-2.307C18.747 1.44 16.133 0 12.48 0 5.867 0 .307 5.387.307 12s5.56 12 12.173 12c3.573 0 6.267-1.173 8.373-3.36 2.16-2.16 2.84-5.213 2.84-7.667 0-.76-.053-1.467-.173-2.053H12.48z" fill="currentColor" />
        </svg>
    </symbol>

    <symbol id="meta" viewBox="0 0 24 24">
        <svg xmlns="http://www.w3.org/2000/svg" viewBox="0 0 24 24">
            <path d="M6.915 4.03c-1.968 0-3.683 1.28-4.871 3.113C.704 9.208 0 11.883 0 14.449c0 .706.07 1.369.21 1.973a6.624 6.624 0 0 0 .265.86 5.297 5.297 0 0 0 .371.761c.696 1.159 1.818 1.927 3.593 1.927 1.497 0 2.633-.671 3.965-2.444.76-1.012 1.144-1.626 2.663-4.32l.756-1.339.186-.325c.061.1.121.196.183.3l2.152 3.595c.724 1.21 1.665 2.556 2.47 3.314 1.046.987 1.992 1.22 3.06 1.22 1.075 0 1.876-.355 2.455-.843a3.743 3.743 0 0 0 .81-.973c.542-.939.861-2.127.861-3.745 0-2.72-.681-5.357-2.084-7.45-1.282-1.912-2.957-2.93-4.716-2.93-1.047 0-2.088.467-3.053 1.308-.652.57-1.257 1.29-1.82 2.05-.69-.875-1.335-1.547-1.958-2.056-1.182-.966-2.315-1.303-3.454-1.303zm10.16 2.053c1.147 0 2.188.758 2.992 1.999 1.132 1.748 1.647 4.195 1.647 6.4 0 1.548-.368 2.9-1.839 2.9-.58 0-1.027-.23-1.664-1.004-.496-.601-1.343-1.878-2.832-4.358l-.617-1.028a44.908 44.908 0 0 0-1.255-1.98c.07-.109.141-.224.211-.327 1.12-1.667 2.118-2.602 3.358-2.602zm-10.201.553c1.265 0 2.058.791 2.675 1.446.307.327.737.871 1.234 1.579l-1.02 1.566c-.757 1.163-1.882 3.017-2.837 4.338-1.191 1.649-1.81 1.817-2.486 1.817-.524 0-1.038-.237-1.383-.794-.263-.426-.464-1.13-.464-2.046 0-2.221.63-4.535 1.66-6.088.454-.687.964-1.226 1.533-1.533a2.264 2.264 0 0 1 1.088-.285z" fill="currentColor" />
        </svg>
    </symbol>

    <symbol id="github" viewBox="0 0 32 32">
        <svg xmlns="http://www.w3.org/2000/svg" width="32" height="32" viewBox="0 0 32 32">
            <path fill="currentColor" d="M16,2.345c7.735,0,14,6.265,14,14-.002,6.015-3.839,11.359-9.537,13.282-.7,.14-.963-.298-.963-.665,0-.473,.018-1.978,.018-3.85,0-1.312-.437-2.152-.945-2.59,3.115-.35,6.388-1.54,6.388-6.912,0-1.54-.543-2.783-1.435-3.762,.14-.35,.63-1.785-.14-3.71,0,0-1.173-.385-3.85,1.435-1.12-.315-2.31-.472-3.5-.472s-2.38,.157-3.5,.472c-2.677-1.802-3.85-1.435-3.85-1.435-.77,1.925-.28,3.36-.14,3.71-.892,.98-1.435,2.24-1.435,3.762,0,5.355,3.255,6.563,6.37,6.913-.403,.35-.77,.963-.893,1.872-.805,.368-2.818,.963-4.077-1.155-.263-.42-1.05-1.452-2.152-1.435-1.173,.018-.472,.665,.017,.927,.595,.332,1.277,1.575,1.435,1.978,.28,.787,1.19,2.293,4.707,1.645,0,1.173,.018,2.275,.018,2.607,0,.368-.263,.787-.963,.665-5.719-1.904-9.576-7.255-9.573-13.283,0-7.735,6.265-14,14-14Z"></path>
        </svg>
    </symbol>

    <symbol id="instagram" viewBox="0 0 32 32">
        <svg xmlns="http://www.w3.org/2000/svg" width="32" height="32" viewBox="0 0 32 32">
            <path fill="currentColor" d="M10.202,2.098c-1.49,.07-2.507,.308-3.396,.657-.92,.359-1.7,.84-2.477,1.619-.776,.779-1.254,1.56-1.61,2.481-.345,.891-.578,1.909-.644,3.4-.066,1.49-.08,1.97-.073,5.771s.024,4.278,.096,5.772c.071,1.489,.308,2.506,.657,3.396,.359,.92,.84,1.7,1.619,2.477,.779,.776,1.559,1.253,2.483,1.61,.89,.344,1.909,.579,3.399,.644,1.49,.065,1.97,.08,5.771,.073,3.801-.007,4.279-.024,5.773-.095s2.505-.309,3.395-.657c.92-.36,1.701-.84,2.477-1.62s1.254-1.561,1.609-2.483c.345-.89,.579-1.909,.644-3.398,.065-1.494,.081-1.971,.073-5.773s-.024-4.278-.095-5.771-.308-2.507-.657-3.397c-.36-.92-.84-1.7-1.619-2.477s-1.561-1.254-2.483-1.609c-.891-.345-1.909-.58-3.399-.644s-1.97-.081-5.772-.074-4.278,.024-5.771,.096m.164,25.309c-1.365-.059-2.106-.286-2.6-.476-.654-.252-1.12-.557-1.612-1.044s-.795-.955-1.05-1.608c-.192-.494-.423-1.234-.487-2.599-.069-1.475-.084-1.918-.092-5.656s.006-4.18,.071-5.656c.058-1.364,.286-2.106,.476-2.6,.252-.655,.556-1.12,1.044-1.612s.955-.795,1.608-1.05c.493-.193,1.234-.422,2.598-.487,1.476-.07,1.919-.084,5.656-.092,3.737-.008,4.181,.006,5.658,.071,1.364,.059,2.106,.285,2.599,.476,.654,.252,1.12,.555,1.612,1.044s.795,.954,1.051,1.609c.193,.492,.422,1.232,.486,2.597,.07,1.476,.086,1.919,.093,5.656,.007,3.737-.006,4.181-.071,5.656-.06,1.365-.286,2.106-.476,2.601-.252,.654-.556,1.12-1.045,1.612s-.955,.795-1.608,1.05c-.493,.192-1.234,.422-2.597,.487-1.476,.069-1.919,.084-5.657,.092s-4.18-.007-5.656-.071M21.779,8.517c.002,.928,.755,1.679,1.683,1.677s1.679-.755,1.677-1.683c-.002-.928-.755-1.679-1.683-1.677,0,0,0,0,0,0-.928,.002-1.678,.755-1.677,1.683m-12.967,7.496c.008,3.97,3.232,7.182,7.202,7.174s7.183-3.232,7.176-7.202c-.008-3.97-3.233-7.183-7.203-7.175s-7.182,3.233-7.174,7.203m2.522-.005c-.005-2.577,2.08-4.671,4.658-4.676,2.577-.005,4.671,2.08,4.676,4.658,.005,2.577-2.08,4.671-4.658,4.676-2.577,.005-4.671-2.079-4.676-4.656h0"></path>
        </svg>
    </symbol>

    <symbol id="linkedin" viewBox="0 0 32 32">
        <svg xmlns="http://www.w3.org/2000/svg" width="32" height="32" viewBox="0 0 32 32">
            <path fill="currentColor" d="M26.111,3H5.889c-1.595,0-2.889,1.293-2.889,2.889V26.111c0,1.595,1.293,2.889,2.889,2.889H26.111c1.595,0,2.889-1.293,2.889-2.889V5.889c0-1.595-1.293-2.889-2.889-2.889ZM10.861,25.389h-3.877V12.87h3.877v12.519Zm-1.957-14.158c-1.267,0-2.293-1.034-2.293-2.31s1.026-2.31,2.293-2.31,2.292,1.034,2.292,2.31-1.026,2.31-2.292,2.31Zm16.485,14.158h-3.858v-6.571c0-1.802-.685-2.809-2.111-2.809-1.551,0-2.362,1.048-2.362,2.809v6.571h-3.718V12.87h3.718v1.686s1.118-2.069,3.775-2.069,4.556,1.621,4.556,4.975v7.926Z" fill-rule="evenodd"></path>
        </svg>
    </symbol>

    <symbol id="error" viewBox="0 0 24 24">
        <svg xmlns="http://www.w3.org/2000/svg" height="24px" viewBox="0 -960 960 960" width="24px" fill="currentColor">
            <path d="M480-280q17 0 28.5-11.5T520-320q0-17-11.5-28.5T480-360q-17 0-28.5 11.5T440-320q0 17 11.5 28.5T480-280Zm0-160q17 0 28.5-11.5T520-480v-160q0-17-11.5-28.5T480-680q-17 0-28.5 11.5T440-640v160q0 17 11.5 28.5T480-440Zm0 360q-83 0-156-31.5T197-197q-54-54-85.5-127T80-480q0-83 31.5-156T197-763q54-54 127-85.5T480-880q83 0 156 31.5T763-763q54 54 85.5 127T880-480q0 83-31.5 156T763-197q-54 54-127 85.5T480-80Zm0-80q134 0 227-93t93-227q0-134-93-227t-227-93q-134 0-227 93t-93 227q0 134 93 227t227 93Zm0-320Z"/>
        </svg>
    </symbol>
</svg>